<svg width="513" height="512" viewBox="0 0 513 512" fill="none" xmlns="http://www.w3.org/2000/svg">
<path d="M341.333 273.066C416.614 273.066 477.866 211.814 477.866 136.533C477.866 61.252 416.614 0 341.333 0C266.052 0 204.8 61.252 204.8 136.533C204.8 211.814 266.052 273.066 341.333 273.066ZM341.333 17.066C407.21 17.066 460.8 70.655 460.8 136.533C460.8 202.411 407.211 256 341.333 256C275.455 256 221.866 202.411 221.866 136.533C221.866 70.655 275.456 17.066 341.333 17.066Z" fill="url(#paint0_linear)"/>
<path d="M507.426 358.4C498.014 342.084 477.064 336.512 461.337 345.626L363.118 393.43C347.852 401.067 332.441 401.067 298.666 401.067C265.651 401.067 215.244 392.73 214.741 392.653C210.048 391.894 205.687 395.025 204.919 399.659C204.142 404.31 207.283 408.713 211.925 409.481C214.05 409.839 264.226 418.134 298.666 418.134C334.096 418.134 351.88 418.134 370.67 408.739L469.332 360.688C473.274 358.41 477.874 357.804 482.286 358.981C486.681 360.167 490.367 362.992 492.637 366.934C494.924 370.885 495.53 375.484 494.352 379.888C493.174 384.292 490.35 387.969 486.16 390.393L370.781 462.201C370.542 462.363 345.923 477.868 290.133 477.868C241.766 477.868 167.023 436.686 165.947 436.097C165.179 435.722 146.67 426.668 110.933 426.668C106.223 426.668 102.4 430.491 102.4 435.201C102.4 439.911 106.223 443.734 110.933 443.734C141.969 443.734 157.96 451.201 157.994 451.201V451.192C161.211 452.984 237.328 494.934 290.133 494.934C351.744 494.934 379.067 477.185 379.972 476.579L494.933 405.027C502.826 400.47 508.475 393.106 510.831 384.308C513.203 375.492 511.983 366.293 507.426 358.4Z" fill="url(#paint1_linear)"/>
<path d="M341.333 179.2C331.921 179.2 324.266 171.546 324.266 162.133C324.266 157.423 320.452 153.6 315.733 153.6C311.014 153.6 307.2 157.423 307.2 162.133C307.2 177.988 318.114 191.24 332.8 195.055V196.267C332.8 200.977 336.614 204.8 341.333 204.8C346.052 204.8 349.866 200.977 349.866 196.267V195.055C364.552 191.241 375.466 177.988 375.466 162.133C375.466 143.308 360.157 128 341.333 128C331.921 128 324.266 120.346 324.266 110.933C324.266 101.521 331.92 93.866 341.333 93.866C350.745 93.866 358.4 101.52 358.4 110.933C358.4 115.643 362.214 119.466 366.933 119.466C371.652 119.466 375.466 115.643 375.466 110.933C375.466 95.078 364.552 81.826 349.866 78.011V76.799C349.866 72.089 346.052 68.266 341.333 68.266C336.614 68.266 332.8 72.089 332.8 76.799V78.011C318.114 81.825 307.2 95.078 307.2 110.933C307.2 129.758 322.509 145.066 341.333 145.066C350.745 145.066 358.4 152.72 358.4 162.133C358.4 171.545 350.746 179.2 341.333 179.2Z" fill="url(#paint2_linear)"/>
<path d="M59.733 273.066H8.533C3.823 273.066 0 276.889 0 281.599C0 286.309 3.823 290.132 8.533 290.132H59.733C64.435 290.132 68.266 293.963 68.266 298.665V486.398C68.266 491.1 64.435 494.931 59.733 494.931H8.533C3.823 494.931 0 498.754 0 503.464C0 508.174 3.823 511.997 8.533 511.997H59.733C73.847 511.997 85.333 500.511 85.333 486.397V298.666C85.333 284.552 73.847 273.066 59.733 273.066Z" fill="url(#paint3_linear)"/>
<path d="M110.933 324.266H179.2C189.158 324.266 206.08 336.964 221.013 348.159C239.735 362.205 257.425 375.466 273.066 375.466H324.266C337.228 375.466 343.662 381.345 343.833 381.499C345.497 383.163 347.682 383.999 349.866 383.999C352.051 383.999 354.235 383.163 355.899 381.499C359.235 378.162 359.235 372.769 355.899 369.433C354.773 368.307 344.294 358.399 324.266 358.399H273.066C263.108 358.399 246.186 345.701 231.253 334.506C212.531 320.46 194.841 307.199 179.2 307.199H110.933C106.223 307.199 102.4 311.022 102.4 315.732C102.4 320.442 106.223 324.266 110.933 324.266Z" fill="url(#paint4_linear)"/>
<path d="M42.667 456.533C42.667 449.476 36.924 443.733 29.867 443.733C22.81 443.733 17.067 449.476 17.067 456.533C17.067 463.59 22.81 469.333 29.867 469.333C36.924 469.333 42.667 463.59 42.667 456.533Z" fill="url(#paint5_linear)"/>
<defs>
<linearGradient id="paint0_linear" x1="341.333" y1="0" x2="341.333" y2="273.066" gradientUnits="userSpaceOnUse">
<stop stop-color="#EE4869" stop-opacity="0"/>
<stop offset="1" stop-color="#A70A00"/>
</linearGradient>
<linearGradient id="paint1_linear" x1="307.208" y1="341.258" x2="307.208" y2="494.934" gradientUnits="userSpaceOnUse">
<stop stop-color="#EE4869" stop-opacity="0"/>
<stop offset="1" stop-color="#A70A00"/>
</linearGradient>
<linearGradient id="paint2_linear" x1="341.333" y1="68.266" x2="341.333" y2="204.8" gradientUnits="userSpaceOnUse">
<stop stop-color="#EE4869" stop-opacity="0"/>
<stop offset="1" stop-color="#A70A00"/>
</linearGradient>
<linearGradient id="paint3_linear" x1="42.6665" y1="273.066" x2="42.6665" y2="511.997" gradientUnits="userSpaceOnUse">
<stop stop-color="#EE4869" stop-opacity="0"/>
<stop offset="1" stop-color="#A70A00"/>
</linearGradient>
<linearGradient id="paint4_linear" x1="230.4" y1="307.199" x2="230.4" y2="383.999" gradientUnits="userSpaceOnUse">
<stop stop-color="#EE4869" stop-opacity="0"/>
<stop offset="1" stop-color="#A70A00"/>
</linearGradient>
<linearGradient id="paint5_linear" x1="29.867" y1="443.733" x2="29.867" y2="469.333" gradientUnits="userSpaceOnUse">
<stop stop-color="#EE4869" stop-opacity="0"/>
<stop offset="1" stop-color="#A70A00"/>
</linearGradient>
</defs>
</svg>
