<svg width="1098" height="821" viewBox="0 0 1098 821" fill="none" xmlns="http://www.w3.org/2000/svg">
<g clip-path="url(#clip0)">
<path opacity="0.1" d="M570.71 820.85C763.364 820.85 919.54 812.397 919.54 801.97C919.54 791.543 763.364 783.09 570.71 783.09C378.057 783.09 221.88 791.543 221.88 801.97C221.88 812.397 378.057 820.85 570.71 820.85Z" fill="#6C63FF"/>
<path d="M768.3 727.95L765.3 732.35L746.75 759.95L731 764.7L719.25 753.2L719.82 745.61L722.75 706.2C722.75 706.2 650.05 663.43 643.55 655.43C637.05 647.43 612.05 640.18 612.05 640.18C612.05 640.18 573.8 622.43 559.55 591.43C545.3 560.43 583.3 555.68 583.3 555.68L726.05 692.2L768.3 727.95Z" fill="#FFC1C7"/>
<path d="M785.8 743.95L740.55 786.2C740.55 786.2 714.55 791.2 691.3 787.7C676.44 785.46 679.3 777.31 683.21 771.7L683.28 771.6C685.622 768.391 689.046 766.139 692.92 765.26C712.16 760.62 718.8 746.69 718.8 746.69L732.8 758.69L757.05 730.43L774.98 738.85L785.8 743.95Z" fill="#575988"/>
<path opacity="0.1" d="M774.98 738.87L764.33 733.87L765.33 732.35L768.33 727.95L726.05 692.2L583.3 555.7C583.3 555.7 545.3 560.43 559.55 591.43C573.8 622.43 612.05 640.18 612.05 640.18C612.05 640.18 637.05 647.43 643.55 655.43C650.05 663.43 722.8 706.18 722.8 706.18L719.87 745.59L719.73 747.47L718.8 746.68C718.8 746.68 712.16 760.61 692.92 765.25C689.046 766.129 685.622 768.381 683.28 771.59L683.21 771.69C679.21 777.29 676.44 785.44 691.3 787.69C714.55 791.19 740.55 786.19 740.55 786.19L785.8 743.94L774.98 738.87Z" fill="black"/>
<path opacity="0.1" d="M11.85 429.98C29.21 504.18 65.96 568.32 124.03 599.43C244.74 664.05 516.95 630.72 720.1 592.43C822.758 573.151 915.941 519.882 984.64 441.2L11.85 429.98Z" fill="#C54874"/>
<path opacity="0.1" d="M1077.2 80.72H965.73C963.228 80.6394 960.856 79.589 959.115 77.7908C957.374 75.9927 956.4 73.5879 956.4 71.085C956.4 68.5821 957.374 66.1773 959.115 64.3791C960.856 62.581 963.228 61.5306 965.73 61.45H985C982.446 61.45 979.996 60.4354 978.19 58.6294C976.385 56.8235 975.37 54.374 975.37 51.82C975.37 49.266 976.385 46.8165 978.19 45.0106C979.996 43.2046 982.446 42.19 985 42.19H971.24C968.738 42.1094 966.366 41.059 964.625 39.2608C962.884 37.4627 961.91 35.0579 961.91 32.555C961.91 30.0521 962.884 27.6472 964.625 25.8491C966.366 24.051 968.738 23.0006 971.24 22.92H1029.42C1016.51 16.92 1001.42 12.65 984.03 10.41C825.39 -9.96001 768.75 3.50999 748.77 17.41C724.12 34.51 696.62 47.09 667.23 53.15C569.35 73.34 386.3 97.63 220.39 45.37C137.93 19.37 76.65 63.29 39.91 136.65H1096.55C1095.17 115.33 1091.04 95.65 1083.46 78.41C1081.72 79.903 1079.5 80.7224 1077.2 80.72V80.72Z" fill="#C54874"/>
<path opacity="0.1" d="M2.38998 275.1C-1.89152 318.255 -0.438889 361.787 6.70998 404.56L985.39 440.35C1012.64 409.014 1035.51 374.13 1053.39 336.65L2.38998 275.1ZM389.47 367.43H370.2C371.491 367.388 372.778 367.607 373.983 368.072C375.189 368.538 376.288 369.241 377.216 370.14C378.145 371.038 378.883 372.115 379.387 373.304C379.891 374.494 380.15 375.773 380.15 377.065C380.15 378.357 379.891 379.636 379.387 380.826C378.883 382.015 378.145 383.092 377.216 383.99C376.288 384.889 375.189 385.592 373.983 386.058C372.778 386.523 371.491 386.742 370.2 386.7H258.73C256.228 386.619 253.856 385.569 252.115 383.771C250.374 381.973 249.4 379.568 249.4 377.065C249.4 374.562 250.374 372.157 252.115 370.359C253.856 368.561 256.228 367.511 258.73 367.43H278C275.446 367.43 272.997 366.415 271.191 364.609C269.385 362.803 268.37 360.354 268.37 357.8C268.37 355.246 269.385 352.797 271.191 350.991C272.997 349.185 275.446 348.17 278 348.17H264.24C261.738 348.089 259.366 347.039 257.625 345.241C255.884 343.443 254.91 341.038 254.91 338.535C254.91 336.032 255.884 333.627 257.625 331.829C259.366 330.031 261.738 328.981 264.24 328.9H375.71C378.212 328.981 380.584 330.031 382.325 331.829C384.066 333.627 385.04 336.032 385.04 338.535C385.04 341.038 384.066 343.443 382.325 345.241C380.584 347.039 378.212 348.089 375.71 348.17H389.47C392.024 348.17 394.473 349.185 396.279 350.991C398.085 352.797 399.1 355.246 399.1 357.8C399.1 360.354 398.085 362.803 396.279 364.609C394.473 366.415 392.024 367.43 389.47 367.43V367.43Z" fill="#C54874"/>
<path opacity="0.1" d="M1096.6 137.29L28.12 163.29C15.12 196.7 6.54999 234.43 2.54999 273.62H1077.88C1084.9 250.622 1090.09 227.105 1093.41 203.29C1096.61 180.28 1097.89 158.02 1096.6 137.29ZM219.47 222.43H200.2C201.491 222.388 202.778 222.607 203.983 223.072C205.189 223.538 206.288 224.241 207.216 225.14C208.145 226.038 208.883 227.115 209.387 228.304C209.891 229.494 210.15 230.773 210.15 232.065C210.15 233.357 209.891 234.636 209.387 235.826C208.883 237.015 208.145 238.092 207.216 238.99C206.288 239.889 205.189 240.592 203.983 241.058C202.778 241.523 201.491 241.742 200.2 241.7H88.73C86.2283 241.619 83.8561 240.569 82.115 238.771C80.3739 236.973 79.4004 234.568 79.4004 232.065C79.4004 229.562 80.3739 227.157 82.115 225.359C83.8561 223.561 86.2283 222.511 88.73 222.43H108C105.446 222.43 102.997 221.415 101.191 219.609C99.3846 217.803 98.37 215.354 98.37 212.8C98.37 210.246 99.3846 207.797 101.191 205.991C102.997 204.185 105.446 203.17 108 203.17H94.24C91.7384 203.089 89.3661 202.039 87.625 200.241C85.8839 198.443 84.9104 196.038 84.9104 193.535C84.9104 191.032 85.8839 188.627 87.625 186.829C89.3661 185.031 91.7384 183.981 94.24 183.9H205.71C208.212 183.981 210.584 185.031 212.325 186.829C214.066 188.627 215.04 191.032 215.04 193.535C215.04 196.038 214.066 198.443 212.325 200.241C210.584 202.039 208.212 203.089 205.71 203.17H219.47C222.024 203.17 224.473 204.185 226.279 205.991C228.085 207.797 229.1 210.246 229.1 212.8C229.1 215.354 228.085 217.803 226.279 219.609C224.473 221.415 222.024 222.43 219.47 222.43V222.43Z" fill="#C54874"/>
<g opacity="0.1">
<path opacity="0.1" d="M797.31 493.62C797.31 493.62 825.51 424.12 878.17 398.34C900.328 387.67 918.425 370.096 929.74 348.26C935.032 337.854 939.36 326.985 942.67 315.79" stroke="#535461" stroke-width="2" stroke-miterlimit="10"/>
<path opacity="0.1" d="M975.76 299.35C970.27 306.25 941.86 316.35 941.86 316.35C941.86 316.35 945.28 286.4 950.77 279.5C952.022 277.712 953.627 276.199 955.486 275.054C957.345 273.91 959.419 273.157 961.579 272.844C963.74 272.531 965.942 272.663 968.049 273.232C970.157 273.802 972.125 274.797 973.834 276.155C975.543 277.514 976.955 279.208 977.985 281.133C979.014 283.058 979.639 285.174 979.82 287.349C980.001 289.525 979.736 291.715 979.039 293.784C978.343 295.853 977.23 297.757 975.77 299.38L975.76 299.35Z" fill="#6C63FF"/>
<path opacity="0.1" d="M966.01 354C957.65 356.81 928.33 349.82 928.33 349.82C928.33 349.82 947.48 326.54 955.84 323.73C957.865 322.9 960.039 322.494 962.227 322.538C964.415 322.582 966.571 323.074 968.561 323.984C970.551 324.894 972.334 326.202 973.798 327.829C975.262 329.455 976.378 331.365 977.075 333.439C977.772 335.514 978.035 337.709 977.85 339.89C977.665 342.07 977.034 344.19 975.997 346.117C974.96 348.044 973.539 349.738 971.821 351.094C970.103 352.45 968.125 353.439 966.01 354V354Z" fill="#6C63FF"/>
<path opacity="0.1" d="M913.15 418.61C904.52 416.81 882.73 395.98 882.73 395.98C882.73 395.98 911.02 385.55 919.65 387.34C923.577 388.414 926.948 390.945 929.074 394.418C931.2 397.89 931.922 402.043 931.094 406.029C930.265 410.016 927.948 413.536 924.614 415.874C921.28 418.211 917.18 419.19 913.15 418.61V418.61Z" fill="#6C63FF"/>
<path opacity="0.1" d="M862.15 458.48C853.34 458.18 828.34 441.32 828.34 441.32C828.34 441.32 854.46 426.26 863.27 426.57C865.459 426.502 867.64 426.883 869.675 427.692C871.711 428.5 873.559 429.718 875.105 431.27C876.651 432.822 877.862 434.675 878.663 436.714C879.463 438.753 879.837 440.934 879.76 443.123C879.683 445.313 879.157 447.463 878.216 449.44C877.274 451.418 875.936 453.181 874.286 454.621C872.635 456.061 870.706 457.146 868.618 457.81C866.531 458.474 864.329 458.702 862.15 458.48V458.48Z" fill="#6C63FF"/>
<path opacity="0.1" d="M901.03 330.29C902.15 339.04 921.25 362.36 921.25 362.36C921.25 362.36 933.83 334.96 932.7 326.22C931.918 322.235 929.65 318.696 926.356 316.322C923.062 313.947 918.988 312.914 914.96 313.431C910.932 313.949 907.252 315.979 904.665 319.109C902.078 322.24 900.779 326.237 901.03 330.29Z" fill="#6C63FF"/>
<path opacity="0.1" d="M841.97 377.68C845.66 385.68 870.87 402.23 870.87 402.23C870.87 402.23 874.66 372.33 870.97 364.32C869.03 360.754 865.808 358.058 861.955 356.779C858.102 355.5 853.907 355.734 850.22 357.432C846.532 359.131 843.629 362.168 842.097 365.927C840.565 369.687 840.52 373.888 841.97 377.68Z" fill="#6C63FF"/>
<path opacity="0.1" d="M790.89 431.62C793.18 440.14 815.22 460.7 815.22 460.7C815.22 460.7 824.02 431.87 821.74 423.35C820.445 419.488 817.726 416.266 814.138 414.34C810.549 412.413 806.361 411.928 802.427 412.983C798.493 414.037 795.11 416.552 792.966 420.015C790.822 423.478 790.08 427.629 790.89 431.62V431.62Z" fill="#6C63FF"/>
<path opacity="0.25" d="M975.76 299.35C970.27 306.25 941.86 316.35 941.86 316.35C941.86 316.35 945.28 286.4 950.77 279.5C952.022 277.712 953.627 276.199 955.486 275.054C957.345 273.91 959.419 273.157 961.579 272.844C963.74 272.531 965.942 272.663 968.049 273.232C970.157 273.802 972.125 274.797 973.834 276.155C975.543 277.514 976.955 279.208 977.985 281.133C979.014 283.058 979.639 285.174 979.82 287.349C980.001 289.525 979.736 291.715 979.039 293.784C978.343 295.853 977.23 297.757 975.77 299.38L975.76 299.35Z" fill="black"/>
<path opacity="0.25" d="M966.01 354C957.65 356.81 928.33 349.82 928.33 349.82C928.33 349.82 947.48 326.54 955.84 323.73C957.865 322.9 960.039 322.494 962.227 322.538C964.415 322.582 966.571 323.074 968.561 323.984C970.551 324.894 972.334 326.202 973.798 327.829C975.262 329.455 976.378 331.365 977.075 333.439C977.772 335.514 978.035 337.709 977.85 339.89C977.665 342.07 977.034 344.19 975.997 346.117C974.96 348.044 973.539 349.738 971.821 351.094C970.103 352.45 968.125 353.439 966.01 354V354Z" fill="black"/>
<path opacity="0.25" d="M913.15 418.61C904.52 416.81 882.73 395.98 882.73 395.98C882.73 395.98 911.02 385.55 919.65 387.34C923.577 388.414 926.948 390.945 929.074 394.418C931.2 397.89 931.922 402.043 931.094 406.029C930.265 410.016 927.948 413.536 924.614 415.874C921.28 418.211 917.18 419.19 913.15 418.61V418.61Z" fill="black"/>
<path opacity="0.25" d="M862.15 458.48C853.34 458.18 828.34 441.32 828.34 441.32C828.34 441.32 854.46 426.26 863.27 426.57C865.459 426.502 867.64 426.883 869.675 427.692C871.711 428.5 873.559 429.718 875.105 431.27C876.651 432.822 877.862 434.675 878.663 436.714C879.463 438.753 879.837 440.934 879.76 443.123C879.683 445.313 879.157 447.463 878.216 449.44C877.274 451.418 875.936 453.181 874.286 454.621C872.635 456.061 870.706 457.146 868.618 457.81C866.531 458.474 864.329 458.702 862.15 458.48V458.48Z" fill="black"/>
<path opacity="0.25" d="M901.03 330.29C902.15 339.04 921.25 362.36 921.25 362.36C921.25 362.36 933.83 334.96 932.7 326.22C931.918 322.235 929.65 318.696 926.356 316.322C923.062 313.947 918.988 312.914 914.96 313.431C910.932 313.949 907.252 315.979 904.665 319.109C902.078 322.24 900.779 326.237 901.03 330.29Z" fill="black"/>
<path opacity="0.25" d="M841.97 377.68C845.66 385.68 870.87 402.23 870.87 402.23C870.87 402.23 874.66 372.33 870.97 364.32C869.03 360.754 865.808 358.058 861.955 356.779C858.102 355.5 853.907 355.734 850.22 357.432C846.532 359.131 843.629 362.168 842.097 365.927C840.565 369.687 840.52 373.888 841.97 377.68Z" fill="black"/>
<path opacity="0.25" d="M790.89 431.62C793.18 440.14 815.22 460.7 815.22 460.7C815.22 460.7 824.02 431.87 821.74 423.35C820.445 419.488 817.726 416.266 814.138 414.34C810.549 412.413 806.361 411.928 802.427 412.983C798.493 414.037 795.11 416.552 792.966 420.015C790.822 423.478 790.08 427.629 790.89 431.62V431.62Z" fill="black"/>
</g>
<g opacity="0.1">
<path opacity="0.1" d="M752.41 382.43C752.41 382.43 755.97 307.51 797.1 265.72C814.463 248.306 825.71 225.729 829.15 201.38C830.683 189.797 831.152 178.098 830.55 166.43" stroke="#535461" stroke-width="2" stroke-miterlimit="10"/>
<path opacity="0.1" d="M856.34 139.93C853.45 148.27 829.99 167.19 829.99 167.19C829.99 167.19 823.29 137.8 826.17 129.47C827.748 125.726 830.692 122.724 834.403 121.071C838.114 119.418 842.316 119.238 846.154 120.569C849.993 121.9 853.181 124.641 855.073 128.237C856.965 131.832 857.417 136.013 856.34 139.93Z" fill="#6C63FF"/>
<path opacity="0.1" d="M865.27 194.73C858.27 200.15 828.33 203.29 828.33 203.29C828.33 203.29 838.68 174.97 845.63 169.55C848.99 167.261 853.095 166.337 857.111 166.965C861.128 167.594 864.754 169.727 867.255 172.933C869.755 176.138 870.941 180.175 870.572 184.224C870.204 188.272 868.308 192.029 865.27 194.73V194.73Z" fill="#6C63FF"/>
<path opacity="0.1" d="M836.83 273.21C828.09 274.38 800.62 261.95 800.62 261.95C800.62 261.95 823.85 242.73 832.62 241.56C836.674 241.283 840.683 242.558 843.831 245.128C846.979 247.698 849.031 251.37 849.571 255.398C850.11 259.426 849.097 263.509 846.736 266.817C844.376 270.125 840.845 272.41 836.86 273.21H836.83Z" fill="#6C63FF"/>
<path opacity="0.1" d="M801.93 327.74C793.52 330.38 764.35 322.74 764.35 322.74C764.35 322.74 783.99 299.88 792.41 297.25C794.454 296.451 796.641 296.082 798.835 296.165C801.028 296.247 803.181 296.78 805.159 297.731C807.138 298.681 808.899 300.028 810.335 301.689C811.77 303.349 812.849 305.287 813.504 307.382C814.158 309.477 814.375 311.684 814.14 313.866C813.905 316.048 813.223 318.159 812.138 320.067C811.052 321.974 809.586 323.638 807.83 324.955C806.074 326.271 804.065 327.213 801.93 327.72V327.74Z" fill="#6C63FF"/>
<path opacity="0.1" d="M796.1 193.91C800.1 201.79 825.82 217.46 825.82 217.46C825.82 217.46 828.59 187.46 824.63 179.57C822.572 176.068 819.259 173.48 815.363 172.331C811.467 171.182 807.28 171.558 803.651 173.382C800.022 175.206 797.222 178.342 795.82 182.154C794.418 185.966 794.518 190.169 796.1 193.91V193.91Z" fill="#6C63FF"/>
<path opacity="0.1" d="M756.1 258.21C762.24 264.54 791.5 271.79 791.5 271.79C791.5 271.79 785.17 242.31 779.03 235.98C776.019 233.242 772.079 231.754 768.01 231.819C763.941 231.884 760.049 233.496 757.128 236.329C754.206 239.162 752.473 243.001 752.282 247.066C752.091 251.131 753.457 255.116 756.1 258.21V258.21Z" fill="#6C63FF"/>
<path opacity="0.1" d="M725.8 326.03C730.8 333.31 758.4 345.4 758.4 345.4C758.4 345.4 757.13 315.28 752.16 308C749.647 304.828 746.024 302.727 742.023 302.119C738.022 301.511 733.939 302.442 730.597 304.724C727.255 307.006 724.902 310.47 724.012 314.418C723.122 318.366 723.761 322.504 725.8 326V326.03Z" fill="#6C63FF"/>
</g>
<path opacity="0.1" d="M431.01 85.5C431.01 85.5 407.18 84.07 410.01 100.77C409.865 101.617 409.992 102.489 410.373 103.259C410.754 104.03 411.369 104.66 412.13 105.06C412.13 105.06 412.13 103.82 414.57 104.24C415.425 104.389 416.295 104.432 417.16 104.37C418.331 104.289 419.443 103.829 420.33 103.06V103.06C420.33 103.06 427.03 100.29 429.63 89.34C429.63 89.34 431.56 86.95 431.48 86.34L427.48 88.06C427.48 88.06 428.85 90.96 427.77 93.37C427.77 93.37 427.64 88.16 426.87 88.28C426.71 88.28 424.78 89.28 424.78 89.28C424.78 89.28 427.15 94.34 425.36 98.01C425.36 98.01 426.04 91.78 424.04 89.65L421.21 91.3C421.21 91.3 423.97 96.52 422.1 100.78C422.1 100.78 422.58 94.25 420.62 91.7L418.05 93.7C418.05 93.7 420.65 98.85 419.05 102.38C419.05 102.38 418.85 94.77 417.48 94.2C416.51 95.0218 415.644 95.9587 414.9 96.99C414.9 96.99 416.67 100.73 415.57 102.7C415.57 102.7 414.9 97.63 414.34 97.61C414.34 97.61 412.1 100.97 411.87 103.27C411.978 101.136 412.643 99.0668 413.8 97.27C412.509 97.5147 411.317 98.1297 410.37 99.04C410.37 99.04 410.72 96.67 414.37 96.46C414.37 96.46 416.22 93.91 416.71 93.76C416.71 93.76 413.1 93.45 410.92 94.43C410.92 94.43 412.84 92.19 417.37 93.2L419.91 91.14C419.91 91.14 415.16 90.49 413.14 91.2C413.14 91.2 415.46 89.2 420.59 90.67L423.35 89.02C421.227 88.55 419.052 88.3617 416.88 88.46C416.88 88.46 419.43 87.09 424.16 88.57L426.16 87.69C426.16 87.69 423.16 87.11 422.32 87.01C421.48 86.91 421.41 86.68 421.41 86.68C423.288 86.3668 425.217 86.5814 426.98 87.3C426.98 87.3 431.09 85.77 431.01 85.5Z" fill="#6C63FF"/>
<path opacity="0.1" d="M368.43 166.77C368.43 166.77 360.29 189.22 377.1 191.27C377.873 191.648 378.745 191.773 379.593 191.626C380.441 191.478 381.22 191.067 381.82 190.45C381.82 190.45 380.64 190.06 381.73 187.88C382.101 187.099 382.377 186.277 382.55 185.43C382.806 184.285 382.683 183.089 382.2 182.02V182.02C382.2 182.02 381.45 174.81 371.69 169.21C371.69 169.21 369.94 166.68 369.33 166.58L369.84 170.92C369.84 170.92 373.01 170.43 375.02 172.15C375.02 172.15 370.02 170.8 369.88 171.57C369.88 171.73 370.25 173.86 370.25 173.86C370.25 173.86 375.77 173.03 378.79 175.78C378.79 175.78 373.01 173.37 370.4 174.67L371.18 177.86C371.18 177.86 376.97 176.69 380.52 179.7C380.52 179.7 374.39 177.38 371.39 178.54L372.58 181.54C372.58 181.54 378.25 180.54 381.19 183.03C381.19 183.03 373.84 181.03 372.9 182.22C373.413 183.386 374.067 184.485 374.85 185.49C374.85 185.49 378.93 184.85 380.51 186.49C380.51 186.49 375.46 185.7 375.28 186.23C375.28 186.23 377.86 189.33 380 190.23C377.994 189.523 376.208 188.302 374.82 186.69C374.699 187.981 374.952 189.279 375.55 190.43C375.55 190.43 373.38 189.43 374.21 185.89C374.21 185.89 372.29 183.39 372.28 182.89C372.28 182.89 370.97 186.27 371.28 188.64C371.28 188.64 369.68 186.16 371.94 182.1L370.68 179.1C370.68 179.1 368.68 183.47 368.82 185.6C368.82 185.6 367.58 182.82 370.42 178.31L369.62 175.2C368.576 177.09 367.779 179.107 367.25 181.2C367.25 181.2 366.66 178.36 369.43 174.26L369.14 172.11C369.14 172.11 367.74 174.79 367.4 175.6C367.06 176.41 366.82 176.38 366.82 176.38C367.057 174.489 367.811 172.7 369 171.21C369 171.21 368.71 166.78 368.43 166.77Z" fill="#6C63FF"/>
<path opacity="0.1" d="M526.47 147.86C526.47 147.86 518.32 170.3 535.14 172.35C535.91 172.729 536.78 172.855 537.626 172.709C538.472 172.564 539.251 172.154 539.85 171.54C539.85 171.54 538.68 171.15 539.76 168.96C540.144 168.181 540.433 167.358 540.62 166.51C540.878 165.368 540.752 164.173 540.26 163.11V163.11C540.26 163.11 539.51 155.9 529.75 150.29C529.75 150.29 528.01 147.76 527.4 147.66L527.9 152.01C527.9 152.01 531.08 151.51 533.08 153.23C533.08 153.23 528.08 151.88 527.95 152.66C527.95 152.81 528.32 154.95 528.32 154.95C528.32 154.95 533.84 154.11 536.85 156.87C536.85 156.87 531.08 154.45 528.46 155.76L529.24 158.94C529.24 158.94 535.03 157.77 538.59 160.78C538.59 160.78 532.46 158.46 529.46 159.63L530.65 162.63C530.65 162.63 536.32 161.63 539.26 164.12C539.26 164.12 531.91 162.12 530.97 163.3C531.482 164.464 532.134 165.562 532.91 166.57C532.91 166.57 537 165.93 538.58 167.57C538.58 167.57 533.52 166.78 533.35 167.3C533.35 167.3 535.93 170.4 538.07 171.3C536.06 170.589 534.271 169.365 532.88 167.75C532.747 169.058 533.001 170.375 533.61 171.54C533.61 171.54 531.43 170.54 532.26 166.99C532.26 166.99 530.35 164.5 530.34 163.99C530.34 163.99 529.02 167.36 529.34 169.74C529.34 169.74 527.74 167.25 530.01 163.2L528.74 160.2C528.74 160.2 526.74 164.57 526.89 166.71C526.89 166.71 525.65 163.92 528.49 159.41L527.69 156.3C526.643 158.189 525.847 160.206 525.32 162.3C525.32 162.3 524.72 159.47 527.49 155.36L527.2 153.22C527.2 153.22 525.8 155.9 525.47 156.7C525.14 157.5 524.89 157.49 524.89 157.49C525.121 155.597 525.876 153.807 527.07 152.32C527.07 152.32 526.74 147.86 526.47 147.86Z" fill="#6C63FF"/>
<path opacity="0.1" d="M268.24 119.74C268.24 119.74 260.09 142.19 276.91 144.23C277.679 144.612 278.551 144.739 279.397 144.594C280.244 144.448 281.022 144.037 281.62 143.42C281.62 143.42 280.45 143.03 281.53 140.85C281.91 140.069 282.199 139.247 282.39 138.4C282.643 137.254 282.517 136.058 282.03 134.99C282.03 134.99 281.28 127.78 271.52 122.17C271.52 122.17 269.78 119.65 269.17 119.55L269.67 123.89C269.67 123.89 272.84 123.4 274.85 125.12C274.85 125.12 269.85 123.76 269.72 124.54C269.72 124.7 270.09 126.83 270.09 126.83C270.09 126.83 275.61 126 278.62 128.75C278.62 128.75 272.84 126.33 270.23 127.64L271.01 130.83C271.01 130.83 276.8 129.66 280.35 132.67C280.35 132.67 274.23 130.35 271.23 131.51L272.42 134.51C272.42 134.51 278.09 133.51 281.03 136C281.03 136 273.67 134 272.74 135.18C273.252 136.348 273.903 137.449 274.68 138.46C274.68 138.46 278.77 137.81 280.34 139.46C280.34 139.46 275.29 138.67 275.11 139.2C275.11 139.2 277.7 142.29 279.84 143.2C277.828 142.493 276.038 141.269 274.65 139.65C274.517 140.958 274.771 142.275 275.38 143.44C275.38 143.44 273.2 142.44 274.03 138.9C274.03 138.9 272.11 136.4 272.11 135.9C272.11 135.9 270.79 139.28 271.11 141.65C271.11 141.65 269.51 139.17 271.77 135.11L270.51 132.11C270.51 132.11 268.51 136.49 268.65 138.62C268.65 138.62 267.41 135.84 270.25 131.33L269.46 128.21C268.413 130.099 267.617 132.116 267.09 134.21C267.09 134.21 266.49 131.38 269.26 127.27L268.97 125.13C268.97 125.13 267.57 127.81 267.24 128.62C266.91 129.43 266.66 129.4 266.66 129.4C266.89 127.509 267.642 125.719 268.83 124.23C268.83 124.23 268.55 119.75 268.24 119.74Z" fill="#6C63FF"/>
<path opacity="0.1" d="M518.6 272.02C518.6 272.02 524.89 295.02 539.81 287.02C540.658 286.885 541.441 286.486 542.048 285.878C542.656 285.271 543.055 284.488 543.19 283.64C543.19 283.64 542.01 283.99 541.63 281.58C541.494 280.724 541.256 279.888 540.92 279.09C540.468 278.01 539.679 277.105 538.67 276.51V276.51C538.67 276.51 533.9 271.06 522.67 272.1C522.67 272.1 519.79 271.04 519.23 271.31L522.15 274.57C522.15 274.57 524.45 272.34 527.08 272.57C527.08 272.57 522.19 274.36 522.56 275.05C522.63 275.19 524.18 276.71 524.18 276.71C524.18 276.71 528.18 272.85 532.26 273.36C532.26 273.36 526.15 274.72 524.76 277.29L527.24 279.45C527.24 279.45 531.3 275.15 535.93 275.56C535.93 275.56 529.59 277.2 527.81 279.88L530.53 281.67C530.53 281.67 534.53 277.56 538.42 277.92C538.42 277.92 531.29 280.56 531.18 282.03C532.273 282.689 533.441 283.213 534.66 283.59C534.66 283.59 537.66 280.71 539.84 281.12C539.84 281.12 535.26 283.38 535.42 283.92C535.42 283.92 539.31 284.92 541.57 284.44C539.521 285.02 537.355 285.051 535.29 284.53C535.933 285.674 536.895 286.605 538.06 287.21C538.06 287.21 535.7 287.64 534.34 284.27C534.34 284.27 531.34 283.34 531.03 282.92C531.03 282.92 531.9 286.43 533.53 288.19C533.53 288.19 530.79 287.09 530.3 282.47L527.55 280.76C527.55 280.76 528.45 285.47 529.78 287.15C529.78 287.15 527.16 285.59 526.88 280.27L524.43 278.19C524.674 280.348 525.195 282.465 525.98 284.49C525.98 284.49 523.86 282.49 523.76 277.56L522.28 275.98C522.28 275.98 522.68 278.98 522.88 279.83C523.08 280.68 522.88 280.83 522.88 280.83C521.977 279.151 521.558 277.253 521.67 275.35C521.67 275.35 518.83 271.86 518.6 272.02Z" fill="#6C63FF"/>
<path d="M815.49 401.76C817.671 404.281 820.078 406.597 822.68 408.68L842.16 425.28C845.63 428.23 849.16 431.28 853.56 432.67C856.164 433.488 858.92 433.698 861.618 433.284C864.315 432.87 866.882 431.842 869.12 430.28L868.79 430.17L869.12 429.95C865.83 428.89 862.46 427.79 859.75 425.66C858.634 424.824 857.695 423.775 856.988 422.573C856.281 421.372 855.819 420.041 855.63 418.66V418.66C855.63 418.52 855.63 418.39 855.63 418.25C855.637 417.871 855.674 417.493 855.74 417.12C859.937 416.762 863.974 415.341 867.47 412.99L867.13 412.87L867.47 412.66C857.09 409.33 849.9 399.59 846.64 389.28C843.38 378.97 843.37 367.99 843.02 357.2C842.67 346.41 841.87 335.32 837.21 325.56C835.46 321.9 833.21 318.42 832.36 314.46C832.126 313.285 832.016 312.088 832.03 310.89C832.1 307.04 833.22 303.17 834.25 299.41C836.539 291.013 838.369 282.497 839.73 273.9C840.266 270.844 840.563 267.752 840.62 264.65C840.714 261.623 840.229 258.605 839.19 255.76C834.61 243.86 818.69 238.25 816.26 225.76C815.975 224.079 815.854 222.374 815.9 220.67C815.9 219.73 815.9 218.8 815.9 217.87C815.9 216.94 815.9 215.87 815.82 214.95C815.13 206.16 809.69 198.53 804.44 191.4C798.12 182.82 791.44 173.9 781.73 169.33C774.19 165.76 764.11 164.58 755.12 165.38C751.086 161.899 746.663 158.896 741.94 156.43C735.07 152.61 727.94 148.85 720.33 148.01C710.68 146.95 701.14 150.65 691.46 151.27C678.3 152.12 665.38 147.27 652.22 146.27C639.06 145.27 623.91 149.7 618.03 162.95C616.652 166.167 615.814 169.59 615.55 173.08V173.08C615.49 173.75 615.45 174.41 615.42 175.08V175.15C615.322 177.855 615.399 180.564 615.65 183.26V183.57C615.65 184.11 615.75 184.65 615.81 185.19C615.81 185.35 615.81 185.5 615.86 185.66C615.86 186.16 615.97 186.66 616.03 187.16L616.09 187.63C616.17 188.26 616.26 188.89 616.34 189.52C616.492 190.817 616.77 192.097 617.17 193.34C617.415 194.059 617.773 194.734 618.23 195.34C619.66 197.16 621.81 197.7 624.03 198.04L625.78 198.29C625.6 198.65 625.41 199.01 625.24 199.38C621.272 207.745 619.222 216.891 619.24 226.15C619.24 257.61 642.53 283.69 672.96 288.43L674.79 290.71C686.01 304.77 700.09 323.54 706.79 337.05C699.05 346.66 689.99 363.7 687.41 392.28L683.58 401.22C675.55 412.77 673.48 429.43 675.55 444.93C673.29 453.31 670.71 463.84 668.92 472.55C655.61 469.6 610.18 462.3 599.44 455.21L567.94 440.37C567.94 440.37 526.94 411.73 504.88 421.29C496.45 410.93 483.73 400.08 478.25 395.98C468.85 388.93 445.47 361.39 445.47 361.39L408.84 312.77C408.74 307.14 408.14 302.33 406.6 300.26C402.28 294.48 379.41 281.65 374.84 284.42C370.27 287.19 366.45 278.42 366.45 278.42L366.1 278.23C365.24 277.73 362.8 276.35 359.41 274.53C359.232 270.471 359.332 266.405 359.71 262.36C359.78 261.68 359.87 261 359.97 260.36C372.112 259.922 383.779 255.529 393.194 247.85C402.61 240.171 409.259 229.626 412.13 217.82C412.29 217.19 412.4 216.54 412.53 215.9C414.169 216.281 415.879 216.234 417.495 215.765C419.111 215.296 420.58 214.419 421.76 213.22C424.96 209.78 425.1 204.49 424.08 199.93C423.06 195.37 421.08 191 420.58 186.34C419.95 179.99 422.19 173.34 420.13 167.34C418.4 162.22 413.84 158.5 408.98 156.07C404.12 153.64 398.8 152.22 393.83 150.01C389.09 147.91 384.68 145.09 379.76 143.43C373.38 141.28 366.52 141.2 359.76 141.36C355.52 139.65 351.2 138.02 346.66 137.51C341.66 136.94 336.16 137.91 332.35 141.24C329.35 143.9 326.91 148.17 322.84 148.31C320.84 148.38 319.04 147.39 317.26 146.54C312.21 144.12 305.82 142.75 301.26 145.96C297.6 148.52 296.26 153.23 295.63 157.62C295 162.01 294.89 166.62 292.77 170.55C291.46 172.97 289.47 174.94 287.82 177.14C283.644 182.725 281.675 189.654 282.29 196.6V196.8C282.05 195.8 281.82 194.87 281.65 193.89C281.65 194.63 281.65 195.36 281.75 196.1C282.185 199.531 282.931 202.915 283.98 206.21L288.12 220.71C290.22 228.07 292.37 235.54 296.37 242.09C297.93 244.671 299.816 247.04 301.98 249.14C305.389 252.719 309.75 255.249 314.55 256.43C316.236 256.808 317.971 256.913 319.69 256.74C319.69 256.95 319.64 257.15 319.6 257.36C319.23 257.29 318.85 257.21 318.5 257.16C316.875 256.821 315.194 256.866 313.59 257.29C305.69 260.1 303.29 268.65 302.59 272.01C302.43 272.87 302.38 273.39 302.38 273.39C302.38 273.39 302.51 273.89 302.66 274.74L302.59 275.03C302.43 275.88 302.38 276.41 302.38 276.41C302.38 276.41 302.51 276.91 302.66 277.78L300.6 277.83L266.15 282.33C258.28 281.79 250.79 281.66 246.78 282.62C246.441 282.695 246.107 282.792 245.78 282.91C240.78 284.64 217.87 300.45 197.31 315C197.31 314.6 197.31 314.21 197.25 313.83L191.4 317.99C191.4 318.38 191.4 318.79 191.4 319.2C189.94 320.2 188.49 321.26 187.09 322.27C180.8 326.77 175.09 330.83 170.84 333.94C165.66 337.66 162.45 340.01 162.45 340.01C162.45 340.01 160.55 340.63 159.29 343.56C157.67 347.31 157.11 354.85 162.96 369.69C173.38 396.1 175.66 413.96 175.66 413.96C172.833 414.255 170.058 414.928 167.41 415.96C163.8 417.4 160.03 419.84 158.46 423.96C157.452 426.837 157.427 429.967 158.39 432.86C163.21 449.96 243 547.06 243 547.06L244 547.15C248.092 547.51 252.208 547.51 256.3 547.15C260.03 546.76 263.52 545.87 265.12 543.99C265.12 543.99 282.81 566.7 308.79 551.23C308.61 571.83 308.09 586.94 311.36 594.55C316.45 606.37 316.45 633.28 316.45 633.28L321.29 633.45C321.03 634.45 320.74 635.45 320.43 636.45C318.2 643.82 314.91 652.73 311.43 654.86C305.57 658.46 308.35 720.34 308.59 725.68C308.59 725.89 308.59 726 308.59 726L308.25 751V753C307.524 752.024 306.872 750.994 306.3 749.92C306.3 749.92 296.88 758.92 296.71 777.92C296.54 796.92 296.88 797.56 296.88 797.56C296.88 797.56 334.88 796.09 342.01 798.71C349.14 801.33 408.77 796.43 408.77 796.43C408.77 796.43 410.98 790.69 404.62 786.28C414.76 785.55 425.82 783.61 432.3 778.91C446.55 768.62 403.55 760.6 400.55 758.97C397.55 757.34 382.69 744.23 376.55 739.32C374.694 737.965 372.5 737.148 370.21 736.96L370.98 714.55C380.13 704.24 390.04 647.39 390.04 647.39C393.28 644.69 394.69 638.12 395.27 634.11C396.454 633.717 397.489 632.971 398.234 631.971C398.98 630.971 399.401 629.767 399.44 628.52V628.52C409.91 628.87 423.08 628.79 425.61 626.28C429.93 622 429.42 607.41 429.42 607.41L423.32 452.97L422.92 452.38C423.929 445.311 423.949 438.135 422.98 431.06C436.68 434.97 447.34 437.63 447.34 437.63C447.34 437.63 467.96 441.43 482.43 444.63C480.062 447.145 478.273 450.149 477.19 453.43C464.19 490.43 537.92 488.9 537.92 488.9L572.73 505L654.67 531.78C628.34 524.01 598.26 514.87 577.79 508.6C575.774 507.983 573.724 507.486 571.65 507.11C552.87 503.71 533.36 510.55 521.4 525.64C521.26 525.83 521.13 526 520.98 526.18C518.116 529.906 516.52 534.451 516.427 539.149C516.333 543.848 517.747 548.453 520.46 552.29C523.59 556.72 527.78 562.61 532.69 569.46C522.3 572.6 505.11 581.35 515.56 603.85C530.04 635.04 568.91 652.85 568.91 652.85C568.91 652.85 594.32 660.15 600.91 668.2C602.76 670.46 609.91 675.47 619.26 681.51C625.26 687.86 629.96 692.01 632.75 692.93C643.89 696.6 665.58 714.21 680.84 727.42L678.55 758.98L678.4 760.88L677.46 760.08C677.46 760.08 670.71 774.08 651.15 778.77C647.227 779.653 643.752 781.917 641.36 785.15L641.29 785.24L640.71 786.08L640.27 785.75C636.27 791.38 634.41 799.58 649.51 801.84C673.14 805.36 699.51 800.33 699.51 800.33L723.07 778.55C725.688 780.753 728.762 782.348 732.07 783.22C749.68 787.22 799.14 806.36 799.14 806.36C799.14 800.99 842.85 731.91 842.85 731.91C901.85 620.23 837.69 536.77 830.6 528.08L829.97 527.32L829.42 518.04L829.3 515.91C829.3 515.91 861.14 501.83 848.94 495.13C836.74 488.43 829.94 456.22 818.45 442.81C809.45 432.35 809.97 408.07 809.02 387.38C810.052 392.489 812.268 397.284 815.49 401.38C815.56 401.47 815.64 401.54 815.71 401.63L814.86 400.89C815.07 401.21 815.27 401.49 815.49 401.76ZM423.16 393.18C427.26 397.59 434.42 403.23 439.16 406.81C433.48 404.04 429.06 401.7 425.65 399.81C424.85 397.59 424.01 395.37 423.16 393.18V393.18ZM301.87 288.53C300.89 291.466 299.106 294.068 296.72 296.04L294.72 287.41C297.34 287.83 299.78 288.22 301.87 288.53ZM701.55 525.64C702.34 523.94 703.16 522.27 703.99 520.64C707.497 519.499 710.589 517.349 712.88 514.46C714.623 520.509 715.913 526.679 716.74 532.92C716.74 533.21 716.74 533.37 716.74 533.37C716.697 535.886 716.317 538.385 715.61 540.8C714.69 543.72 713.01 546.47 709.96 546.8C708.69 546.93 702.44 545.42 693.09 542.87C690.38 542.13 687.4 541.3 684.22 540.4C689.21 540.07 696.15 537.26 701.55 525.64ZM779.8 314.64C777.93 311.64 774.03 309.72 769.26 308.59C768.39 308.01 767.04 307.09 765.32 305.84C756.92 299.69 740.15 285.84 732.46 268.15C734.604 267.552 736.697 266.787 738.72 265.86C741.861 264.42 744.827 262.625 747.56 260.51C748.48 259.79 749.38 259.04 750.24 258.26C752.444 256.272 754.453 254.079 756.24 251.71C756.95 250.71 757.64 249.76 758.24 248.71C759.221 247.171 760.109 245.575 760.9 243.93C762.721 240.091 764.125 236.068 765.09 231.93C765.48 230.27 765.82 228.58 766.09 226.88C766.36 225.18 766.62 223.47 766.81 221.75C767.431 215.681 767.668 209.579 767.52 203.48C767.52 203.19 767.52 202.89 767.52 202.6C767.52 202.49 767.52 202.38 767.52 202.28C767.491 196.097 766.821 189.934 765.52 183.89C765.97 184.06 766.42 184.23 766.85 184.43C767.573 184.784 768.262 185.203 768.91 185.68C768.75 185.45 768.57 185.22 768.4 184.99C771.3 186.87 773.46 189.8 775.4 192.72C784.287 206.575 789.963 222.242 792.011 238.574C794.06 254.906 792.43 271.489 787.24 287.11C785.78 291.4 784.03 295.67 783.64 300.18C782.23 316.29 797.64 328.58 803.37 343.72C806.24 351.31 806.69 359.72 807.07 368.04C802.75 346.97 786.96 326.23 779.83 314.68L779.8 314.64Z" fill="url(#paint0_linear)"/>
<path d="M397.55 633.2C397.55 633.2 396.8 645.7 392.05 649.7C392.05 649.7 382.3 706.2 373.3 716.45L371.8 722.2L334.3 717.95L341.8 667.95L348.8 621.95L397.55 633.2Z" fill="#A05D63"/>
<path opacity="0.03" d="M397.55 633.2C397.55 633.2 396.8 645.7 392.05 649.7C392.05 649.7 382.3 706.2 373.3 716.45L371.8 722.2L334.3 717.95L341.8 667.95L348.8 621.95L397.55 633.2Z" fill="black"/>
<path d="M357.14 717.15L373.3 716.44L372.44 741.88L360.07 750.17L337.79 745.29L345.92 711.29L357.14 717.15Z" fill="#FF748F"/>
<path opacity="0.03" d="M357.14 717.15L373.3 716.44L372.44 741.88L360.07 750.17L337.79 745.29L345.92 711.29L357.14 717.15Z" fill="black"/>
<path d="M360.07 739.93C360.07 739.93 372.76 736.19 378.78 741.07C384.8 745.95 399.44 758.96 402.37 760.59C405.3 762.22 447.55 770.19 433.6 780.43C419.65 790.67 383.83 787.75 383.83 787.75C383.83 787.75 360.4 780.91 359.75 780.59C359.1 780.27 344.75 773.27 344.3 772.78C343.85 772.29 348.36 739.78 348.36 739.78L360.07 739.93Z" fill="#5D618C"/>
<path opacity="0.03" d="M360.07 739.93C360.07 739.93 372.76 736.19 378.78 741.07C384.8 745.95 399.44 758.96 402.37 760.59C405.3 762.22 447.55 770.19 433.6 780.43C419.65 790.67 383.83 787.75 383.83 787.75C383.83 787.75 360.4 780.91 359.75 780.59C359.1 780.27 344.75 773.27 344.3 772.78C343.85 772.29 348.36 739.78 348.36 739.78L360.07 739.93Z" fill="black"/>
<path d="M323.3 401.95L322.55 448.43L320.85 547.58L319.85 548.45C290.1 574.2 269.1 546.95 269.1 546.95C267.52 548.82 264.1 549.71 260.42 550.09C256.395 550.45 252.345 550.45 248.32 550.09L247.32 550C247.32 550 168.8 453.43 164.05 436.43C163.108 433.555 163.132 430.45 164.12 427.59C165.67 423.53 169.38 421.11 172.93 419.68C175.534 418.651 178.266 417.978 181.05 417.68C181.05 417.68 178.8 399.93 168.55 373.68C162.79 358.93 163.35 351.44 164.94 347.68C166.18 344.77 168.05 344.15 168.05 344.15C168.05 344.15 171.21 341.82 176.3 338.15C180.53 335.06 186.1 331.02 192.3 326.55L198.05 322.43C219.26 307.21 244.82 289.29 250.05 287.43C250.376 287.311 250.71 287.214 251.05 287.14C261.78 284.55 297.79 289.93 297.79 289.93L323.3 401.95Z" fill="#FF6584"/>
<path opacity="0.1" d="M323.3 401.95L322.55 448.43C286.98 437.94 253.91 368.43 249.55 362.95C245.82 358.19 249.65 305.18 251.06 287.16C261.79 284.57 297.8 289.95 297.8 289.95L323.3 401.95Z" fill="black"/>
<path d="M731.55 311.43C731.55 311.43 703.8 325.68 700.3 381.68C700.3 381.68 695.8 410.18 693.3 415.18C690.8 420.18 678.8 467.43 680.3 473.18C680.3 473.18 677.8 478.93 668.55 476.43C659.3 473.93 609.3 466.18 598.05 458.68L567.05 443.93C567.05 443.93 506.55 401.18 493.8 437.93C481.05 474.68 553.55 473.2 553.55 473.2L587.8 489.2L691.55 523.43C691.55 523.43 705.3 529.68 714.55 509.68C720.469 497.081 727.496 485.033 735.55 473.68C735.55 473.68 756.55 414.68 756.3 404.68C756.05 394.68 778.8 370.93 778.8 370.93C778.8 370.93 783.3 307.93 746.3 309.18L731.55 311.43Z" fill="#A05D63"/>
<path opacity="0.03" d="M731.55 311.43C731.55 311.43 703.8 325.68 700.3 381.68C700.3 381.68 695.8 410.18 693.3 415.18C690.8 420.18 678.8 467.43 680.3 473.18C680.3 473.18 677.8 478.93 668.55 476.43C659.3 473.93 609.3 466.18 598.05 458.68L567.05 443.93C567.05 443.93 506.55 401.18 493.8 437.93C481.05 474.68 553.55 473.2 553.55 473.2L587.8 489.2L691.55 523.43C691.55 523.43 705.3 529.68 714.55 509.68C720.469 497.081 727.496 485.033 735.55 473.68C735.55 473.68 756.55 414.68 756.3 404.68C756.05 394.68 778.8 370.93 778.8 370.93C778.8 370.93 783.3 307.93 746.3 309.18L731.55 311.43Z" fill="black"/>
<path d="M438.05 360.07C439.55 361.82 446.55 365.43 446.55 365.43C446.55 365.43 469.55 392.8 478.8 399.8C488.05 406.8 518.3 433.55 512.18 443.68C506.06 453.81 499.18 451.55 499.18 451.55L445.05 414.05C445.05 414.05 426.05 400.43 422.18 393.93C418.31 387.43 413.55 373.82 413.55 373.82L438.05 360.07Z" fill="#A05D63"/>
<path opacity="0.03" d="M438.05 360.07C439.55 361.82 446.55 365.43 446.55 365.43C446.55 365.43 469.55 392.8 478.8 399.8C488.05 406.8 518.3 433.55 512.18 443.68C506.06 453.81 499.18 451.55 499.18 451.55L445.05 414.05C445.05 414.05 426.05 400.43 422.18 393.93C418.31 387.43 413.55 373.82 413.55 373.82L438.05 360.07Z" fill="black"/>
<path d="M407.68 313.32L446.55 365.44L411.55 379.07L397.05 335.44L407.68 313.32Z" fill="#DCE6F2"/>
<path opacity="0.03" d="M407.68 313.32L446.55 365.44L411.55 379.07L397.05 335.44L407.68 313.32Z" fill="black"/>
<path d="M417.8 446.2L424.8 456.45L430.8 609.95C430.8 609.95 431.3 624.45 427.05 628.7C422.8 632.95 388.05 630.2 388.05 630.2C388.05 630.2 389.3 473.7 389.8 470.7C390.3 467.7 417.8 446.2 417.8 446.2Z" fill="#575988"/>
<path opacity="0.1" d="M417.8 446.2L424.8 456.45L430.8 609.95C430.8 609.95 431.3 624.45 427.05 628.7C422.8 632.95 388.05 630.2 388.05 630.2C388.05 630.2 389.3 473.7 389.8 470.7C390.3 467.7 417.8 446.2 417.8 446.2Z" fill="black"/>
<path d="M370.99 640.24C368.713 645.837 366.04 651.264 362.99 656.48C362.99 656.48 356.49 693.57 353.72 696.99C351.72 699.49 350.8 718.15 350.47 727.88C350.35 731.4 350.3 733.75 350.3 733.75L312.08 751.97L311.91 727.89C311.91 727.89 311.91 727.78 311.91 727.57C311.67 722.26 308.91 660.76 314.7 657.18C318.1 655.07 321.34 646.18 323.53 638.89C325.2 633.26 326.25 628.55 326.25 628.55C326.25 628.55 368.71 625.79 372.25 630.34C373.55 631.96 372.65 635.9 370.99 640.24Z" fill="#A05D63"/>
<path opacity="0.1" d="M370.99 640.24C353.77 639.88 332.19 639.15 323.47 638.84C325.14 633.21 326.19 628.5 326.19 628.5C326.19 628.5 368.65 625.74 372.19 630.29C373.55 631.96 372.65 635.9 370.99 640.24Z" fill="black"/>
<path d="M320.8 412.7C320.8 412.7 309.05 475.2 311.3 515.45C313.55 555.7 309.55 585.43 314.55 597.2C319.55 608.97 319.55 635.7 319.55 635.7C319.55 635.7 387.55 638.2 394.55 637.2C401.55 636.2 401.3 630.95 401.3 630.95C401.3 630.95 396.55 589.43 401.05 576.43C405.55 563.43 404.8 523.68 404.8 523.68L423.8 459.68C423.8 459.68 429.55 430.93 417.55 419.18C405.55 407.43 320.8 412.7 320.8 412.7Z" fill="#575988"/>
<path d="M724.3 742.95L721.3 747.35L702.75 774.95L687 779.7L675.25 768.2L675.82 760.61L678.75 721.2C678.75 721.2 606.05 678.43 599.55 670.43C593.05 662.43 568.05 655.18 568.05 655.18C568.05 655.18 529.8 637.43 515.55 606.43C501.3 575.43 539.3 570.68 539.3 570.68L682.05 707.2L724.3 742.95Z" fill="#A05D63"/>
<path opacity="0.1" d="M721.35 747.34L702.8 774.94L687.05 779.69L675.3 768.19L675.87 760.6L688.8 771.69L713.05 743.44L721.35 747.34Z" fill="black"/>
<path d="M741.8 758.95L696.55 801.2C696.55 801.2 670.55 806.2 647.3 802.7C632.44 800.46 635.3 792.31 639.21 786.7L639.28 786.6C641.622 783.391 645.046 781.139 648.92 780.26C668.16 775.62 674.8 761.69 674.8 761.69L688.8 773.69L713.05 745.43L730.98 753.85L741.8 758.95Z" fill="#575988"/>
<path d="M741.8 759.43L696.55 801.7C696.55 801.7 670.55 806.7 647.3 803.2C632.44 800.96 634.3 792.81 638.21 787.2C642.706 790.764 648.103 793.011 653.8 793.69C666.55 794.94 685.8 793.69 685.8 793.69L730.98 754.36L741.8 759.43Z" fill="white"/>
<path d="M368.22 253.03C364.54 254.87 362.85 260.55 362.17 267.03C361.02 278.09 362.88 291.41 362.88 291.41C362.88 291.41 312.88 277.74 318.22 275.07C321.29 273.54 322.92 262.4 323.75 253.23C324.37 246.45 324.55 240.74 324.55 240.74C324.55 240.74 378.22 248.03 368.22 253.03Z" fill="#A05D63"/>
<path d="M766.22 313.7C766.22 313.7 705.55 371.03 707.55 354.37C707.83 352.05 707.03 348.84 705.45 345.05C699.84 331.53 684.33 310.54 672.2 295.19C663.3 283.93 656.2 275.7 656.2 275.7C656.2 275.7 731.55 212.37 725.55 248.37C724.3 256.579 725.442 264.974 728.84 272.55C736.35 290.23 752.99 304.14 761.3 310.28C764.3 312.49 766.22 313.7 766.22 313.7Z" fill="#A05D63"/>
<path opacity="0.1" d="M717.22 259.36C716.13 260.71 712.09 265.45 710.89 266.7C699.49 278.57 697.97 295.7 680.22 295.7C677.545 295.702 674.873 295.531 672.22 295.19C663.32 283.93 656.22 275.7 656.22 275.7C656.22 275.7 731.55 212.37 725.55 248.37C724.13 256.91 714.05 251.88 717.22 259.36Z" fill="black"/>
<path d="M742.88 231.03C742.882 243.426 739.208 255.544 732.322 265.851C725.437 276.159 715.649 284.193 704.197 288.938C692.746 293.682 680.144 294.924 667.986 292.506C655.828 290.088 644.661 284.12 635.896 275.354C627.13 266.589 621.162 255.422 618.744 243.264C616.326 231.106 617.568 218.504 622.312 207.053C627.057 195.601 635.091 185.813 645.399 178.928C655.706 172.042 667.824 168.368 680.22 168.37C688.457 168.338 696.62 169.937 704.236 173.075C711.853 176.213 718.773 180.827 724.598 186.652C730.423 192.477 735.037 199.397 738.175 207.014C741.313 214.63 742.912 222.792 742.88 231.03Z" fill="#A05D63"/>
<path opacity="0.1" d="M766.22 313.7C766.22 313.7 705.55 371.03 707.55 354.37C707.83 352.05 707.03 348.84 705.45 345.05L714.22 324.37C724.965 314.958 738.746 309.738 753.03 309.67C755.629 309.668 758.225 309.845 760.8 310.2L761.3 310.28C764.3 312.49 766.22 313.7 766.22 313.7Z" fill="black"/>
<path d="M837.55 733.7C837.55 733.7 794.55 802.36 794.55 807.7C794.55 807.7 745.88 788.7 728.55 784.7C711.22 780.7 694.88 744.37 694.88 744.37C694.88 744.37 648.88 701.03 630.88 695.03C615.61 689.94 542.23 586.43 520.37 555.2C517.694 551.378 516.302 546.805 516.395 542.14C516.489 537.476 518.063 532.961 520.89 529.25L521.3 528.72C527.085 521.442 534.746 515.88 543.458 512.634C552.17 509.388 561.603 508.581 570.74 510.3C572.768 510.673 574.771 511.167 576.74 511.78C608.22 521.51 662.74 538.23 690.24 545.78C699.44 548.31 705.59 549.78 706.84 549.69C709.84 549.38 711.49 546.69 712.4 543.74C713.094 541.34 713.468 538.858 713.51 536.36C713.51 536.36 713.51 536.2 713.51 535.91C712.667 529.552 711.343 523.268 709.55 517.11C706.34 506.11 700.78 493.2 691.55 487.03C683.89 481.92 677.8 470.65 674.61 457.55C670.32 439.86 671.31 418.81 680.88 405.03L690.13 383.21L705.6 346.71L714.22 326.37C724.965 316.958 738.746 311.738 753.03 311.67C755.629 311.668 758.225 311.845 760.8 312.2C767.43 313.12 773.16 315.11 775.55 319.03C782.88 331.03 799.55 353.03 802.88 375.03C806.21 397.03 802.22 433.03 813.55 446.37C824.88 459.71 831.55 491.7 843.55 498.37C855.55 505.04 824.22 519.03 824.22 519.03L824.34 521.14L824.88 530.37C824.88 530.37 825.1 530.62 825.5 531.12C832.48 539.76 895.55 622.71 837.55 733.7Z" fill="#FF6584"/>
<path d="M825.55 531.12C812.41 533.87 783.67 539.86 770.85 542.49L768.6 542.95C767.85 543.1 767.01 543.24 766.1 543.37C753.22 545.14 725.28 544.27 712.49 543.75C713.184 541.35 713.558 538.868 713.6 536.37C713.6 536.37 713.6 536.21 713.6 535.92C723.33 535.29 746.39 533.45 766.15 529.39C767.76 529.06 769.35 528.71 770.9 528.39C773.14 527.87 775.32 527.32 777.4 526.74C795.12 521.74 813.83 521.08 824.4 521.18L824.94 530.41C824.94 530.41 825.1 530.62 825.55 531.12Z" fill="#575988"/>
<path d="M770.8 528.35V542.49L768.55 542.95C767.8 543.1 766.96 543.24 766.05 543.37V529.43C767.66 529.06 769.25 528.71 770.8 528.35Z" fill="#FF6584"/>
<path opacity="0.1" d="M783.05 555.43C783.05 555.43 756.3 616.68 740.05 622.68C723.8 628.68 683.3 649.93 683.3 649.93C683.3 649.93 706.55 670.43 730.8 647.93C755.05 625.43 790.05 565.43 783.05 555.43Z" fill="black"/>
<path opacity="0.1" d="M812.3 547.2C812.3 547.2 814.8 570.45 811.3 574.7C807.8 578.95 812.3 547.2 812.3 547.2Z" fill="black"/>
<path opacity="0.1" d="M826.8 562.43C826.8 562.43 840.3 703.93 773.3 704.68C773.3 704.7 836.05 642.43 826.8 562.43Z" fill="black"/>
<path opacity="0.1" d="M843.8 596.43C843.8 596.43 863.05 670.68 837.8 679.18C837.8 679.2 851.05 640.7 843.8 596.43Z" fill="black"/>
<path opacity="0.1" d="M724.05 577.43C722.8 577.43 672.05 586.18 683.05 593.18C694.05 600.18 724.05 577.43 724.05 577.43Z" fill="black"/>
<path opacity="0.1" d="M759.05 477.2C759.05 477.2 800.55 513.95 792.55 517.95Z" fill="black"/>
<path opacity="0.1" d="M755.55 488.95C755.55 488.95 779.55 518.45 776.8 520.2Z" fill="black"/>
<path opacity="0.1" d="M806.8 484.43C806.8 484.43 817.8 498.18 816.05 501.18Z" fill="black"/>
<path opacity="0.1" d="M817.8 477.2C817.8 477.2 833.55 489.43 830.05 494.2Z" fill="black"/>
<path d="M730.3 328.2C730.3 328.2 781.55 332.2 779.3 373.45C777.05 414.7 738.8 425.2 738.8 425.2L689.05 410.95C689.05 410.95 711.3 330.95 730.3 328.2Z" fill="#A05D63"/>
<path opacity="0.1" d="M576.78 511.78C608.26 521.51 662.78 538.23 690.28 545.78C688.478 546.698 686.503 547.23 684.484 547.342C682.464 547.454 680.443 547.144 678.55 546.43L574.8 512.2L570.74 510.3C572.781 510.671 574.798 511.166 576.78 511.78Z" fill="black"/>
<path opacity="0.1" d="M752.35 409.82C747.48 416.32 743.19 423.32 743.35 427.7C743.43 430.85 741.35 438.88 738.57 448.39C731.409 472.275 721.686 495.316 709.57 517.11C706.36 506.11 700.8 493.2 691.57 487.03C683.91 481.92 677.82 470.65 674.63 457.55C677.06 448.07 679.37 440.1 680.32 438.2C682.82 433.2 687.32 404.7 687.32 404.7C687.743 397.478 688.689 390.296 690.15 383.21C693.78 365.88 699.95 354.21 705.62 346.71C712.46 337.59 718.62 334.45 718.62 334.45L733.37 332.2C750.37 331.63 758.57 344.56 762.52 358.73C767.36 376.34 763.31 395.18 752.35 409.82Z" fill="black"/>
<path d="M715.55 330.43C715.55 330.43 687.8 344.68 684.3 400.68C684.3 400.68 679.8 429.18 677.3 434.18C674.8 439.18 662.8 486.43 664.3 492.18C664.3 492.18 661.8 497.93 652.55 495.43C643.3 492.93 593.3 485.18 582.05 477.68L551.05 462.93C551.05 462.93 490.55 420.18 477.8 456.93C465.05 493.68 537.55 492.2 537.55 492.2L571.8 508.2L675.55 542.43C675.55 542.43 689.3 548.68 698.55 528.68C700.86 523.68 703.33 518.93 705.74 514.61C718.22 492.38 728.217 468.846 735.55 444.43C738.38 434.92 740.41 426.89 740.33 423.74C740.22 419.36 744.52 412.35 749.33 405.86C760.33 391.22 764.33 372.38 759.43 354.76C755.48 340.59 747.24 327.66 730.28 328.24L715.55 330.43Z" fill="#A05D63"/>
<path opacity="0.1" d="M368.22 253.03C364.54 254.87 362.85 260.55 362.17 267.03C361.52 267.03 360.87 267.03 360.22 267.03C346.776 267.055 333.793 262.128 323.75 253.19C324.37 246.41 324.55 240.7 324.55 240.7C324.55 240.7 378.22 248.03 368.22 253.03Z" fill="black"/>
<path d="M415.22 210.03C415.22 220.908 411.994 231.542 405.951 240.586C399.907 249.631 391.318 256.681 381.268 260.843C371.218 265.006 360.159 266.095 349.49 263.973C338.821 261.851 329.021 256.613 321.329 248.921C313.637 241.229 308.399 231.429 306.277 220.76C304.155 210.091 305.244 199.032 309.407 188.982C313.569 178.932 320.619 170.343 329.664 164.299C338.708 158.256 349.342 155.03 360.22 155.03C374.797 155.062 388.768 160.866 399.076 171.174C409.383 181.482 415.188 195.453 415.22 210.03V210.03Z" fill="#A05D63"/>
<path opacity="0.1" d="M433.8 425.43C433.8 425.43 405.05 436.93 396.05 440.93C387.05 444.93 335.55 435.68 335.55 435.68C335.55 435.68 308.8 422.18 311.05 408.68C313.3 395.18 289.55 350.95 289.55 350.95C289.55 350.95 288.8 311.7 299.3 304.2C309.8 296.7 305.8 280.95 305.8 280.95C305.8 280.95 305.85 280.43 306.01 279.58C306.66 276.24 309.01 267.74 316.8 264.95C318.377 264.526 320.032 264.481 321.63 264.82C329.1 265.95 341.37 271.51 351.52 276.64C359.92 280.89 366.87 284.84 368.46 285.76L368.8 285.95C368.8 285.95 372.55 294.7 377.05 291.95C381.55 289.2 404.05 301.95 408.3 307.7C412.55 313.45 409.55 340.45 408.8 347.2C408.05 353.95 413.05 373.95 418.55 385.43C424.05 396.91 433.8 425.43 433.8 425.43Z" fill="black"/>
<path d="M433.8 422.43C433.8 422.43 405.05 433.93 396.05 437.93C387.05 441.93 335.55 432.68 335.55 432.68C335.55 432.68 308.8 419.18 311.05 405.68C313.3 392.18 289.55 347.95 289.55 347.95C289.55 347.95 288.8 308.7 299.3 301.2C309.8 293.7 305.8 277.95 305.8 277.95C305.8 277.95 305.85 277.43 306.01 276.58C306.66 273.24 309.01 264.74 316.8 261.95C318.377 261.526 320.032 261.481 321.63 261.82C329.1 262.95 341.37 268.51 351.52 273.64C359.92 277.89 366.87 281.84 368.46 282.76L368.8 282.95C368.8 282.95 372.55 291.7 377.05 288.95C381.55 286.2 404.05 298.95 408.3 304.7C412.55 310.45 409.55 337.45 408.8 344.2C408.05 350.95 413.05 370.95 418.55 382.43C424.05 393.91 433.8 422.43 433.8 422.43Z" fill="#DCE6F2"/>
<path d="M340.72 384.03C340.72 384.03 316.05 424.03 312.05 426.2L313.55 440.2C313.55 440.2 348.72 432.86 350.89 423.03C353.06 413.2 351.89 383.53 351.89 383.53L340.72 384.03Z" fill="#575988"/>
<path opacity="0.2" d="M340.72 384.03C340.72 384.03 316.05 424.03 312.05 426.2L313.55 440.2C313.55 440.2 348.72 432.86 350.89 423.03C353.06 413.2 351.89 383.53 351.89 383.53L340.72 384.03Z" fill="black"/>
<path opacity="0.1" d="M375.43 333.07C375.43 333.07 379.8 349.95 386.68 355.7C393.56 361.45 375.43 333.07 375.43 333.07Z" fill="black"/>
<path d="M332.55 377.57C333.18 378.7 354.3 407.45 376.55 418.07C398.8 428.69 448.43 441.2 448.43 441.2C448.43 441.2 488.68 448.7 495.55 451.57C502.42 454.44 511.18 441.57 468.05 423.2C424.92 404.83 416.55 396.7 416.55 396.7C416.55 396.7 379.05 378.43 373.05 369.43C367.05 360.43 332.55 377.57 332.55 377.57Z" fill="#A05D63"/>
<path opacity="0.1" d="M348.3 517.43C349.05 516.93 367.05 497.68 369.3 505.93C371.55 514.18 348.3 517.43 348.3 517.43Z" fill="black"/>
<path opacity="0.1" d="M358.8 479.43C358.55 480.18 356.05 501.43 348.8 503.93Z" fill="black"/>
<path opacity="0.1" d="M366.3 485.2C366.3 485.2 359.8 507.95 351.55 509.43Z" fill="black"/>
<path opacity="0.1" d="M333.3 553.43C333.3 553.43 344.3 553.68 345.8 546.68Z" fill="black"/>
<path opacity="0.1" d="M348.3 598.95C349.8 599.2 373.3 614.2 367.3 617.2C361.3 620.2 348.3 598.95 348.3 598.95Z" fill="black"/>
<path opacity="0.1" d="M350.43 725.57V727.88C350.31 731.4 350.26 733.75 350.26 733.75L312.04 751.97L311.87 727.89C311.87 727.89 311.87 727.78 311.87 727.57V725.94L327.17 726.43L350.43 725.57Z" fill="black"/>
<path d="M357.58 760.58L325.7 772.78L311.39 764.32L311.54 752.74L311.87 727.88L327.17 728.37L350.43 727.56V744.97L357.58 760.58Z" fill="#FF748F"/>
<path opacity="0.1" d="M357.55 760.59L325.67 772.79L311.36 764.33L311.51 752.75C313.586 755.471 316.24 757.699 319.279 759.272C322.319 760.845 325.669 761.726 329.09 761.85C329.09 761.85 340.31 747.85 347.14 743.79C347.625 743.499 348.164 743.311 348.725 743.235C349.285 743.159 349.855 743.198 350.4 743.35V744.98L357.55 760.59Z" fill="black"/>
<path d="M329.12 763.84C329.12 763.84 316.12 764.01 309.6 751.64C309.6 751.64 300.33 760.59 300.16 779.46C299.99 798.33 300.33 798.98 300.33 798.98C300.33 798.98 337.74 797.52 344.74 800.12C351.74 802.72 410.46 797.84 410.46 797.84C410.46 797.84 414.36 787.59 396.63 784.01C378.9 780.43 364.26 761.56 363.77 760.75C363.28 759.94 354.01 741.75 347.18 745.75C340.35 749.75 329.12 763.84 329.12 763.84Z" fill="#5D618C"/>
<path opacity="0.1" d="M363.6 149.27L359.87 148.76L362.2 148.7L363.6 149.27Z" fill="black"/>
<path opacity="0.1" d="M415.22 210.03C415.222 214.296 414.729 218.548 413.75 222.7C412.915 222.485 412.117 222.148 411.38 221.7C410.31 221.01 409.24 220.06 407.98 220.17C407.241 220.286 406.549 220.605 405.98 221.09C400.06 225.42 395.66 232.54 388.46 233.92C389.181 231.812 389.279 229.541 388.74 227.38C387.213 228.915 385.34 230.062 383.278 230.723C381.216 231.384 379.025 231.541 376.89 231.18C377.41 229.931 377.471 228.539 377.06 227.25C371.99 230.09 366.711 232.54 361.27 234.58C361.08 233.58 360.9 232.66 360.71 231.7C353.05 235.44 353.65 248.13 345.99 251.87C341.43 254.1 334.99 252.5 331.84 256.52C331.72 256.68 331.61 256.84 331.5 257.01C323.315 252.003 316.582 244.942 311.97 236.529C307.358 228.115 305.028 218.641 305.21 209.048C305.392 199.455 308.081 190.076 313.009 181.844C317.937 173.611 324.932 166.811 333.302 162.118C341.671 157.426 351.122 155.004 360.716 155.094C370.31 155.184 379.714 157.783 387.994 162.631C396.274 167.48 403.141 174.41 407.913 182.734C412.686 191.058 415.198 200.485 415.2 210.08L415.22 210.03Z" fill="black"/>
<path d="M363.6 147.26C358.98 145.35 354.29 143.43 349.32 142.86C344.35 142.29 338.99 143.26 335.24 146.57C332.24 149.21 329.89 153.45 325.89 153.57C323.94 153.64 322.14 152.66 320.39 151.81C315.39 149.41 309.14 148.05 304.63 151.23C301.03 153.78 299.68 158.46 299.09 162.83C298.5 167.2 298.36 171.83 296.28 175.68C294.99 178.08 293.03 180.04 291.41 182.23C287.292 187.794 285.357 194.675 285.97 201.57C286.388 204.98 287.117 208.344 288.15 211.62L292.23 226.03C294.3 233.35 296.41 240.77 300.35 247.28C304.29 253.79 310.35 259.39 317.75 261.07C322.21 262.07 327.61 261.25 330.11 257.42C330.75 256.42 331.16 255.35 331.86 254.42C334.96 250.42 341.45 252.01 346.01 249.78C353.67 246.04 353.07 233.35 360.73 229.61L361.3 232.48C366.735 230.437 372.01 227.99 377.08 225.16C377.489 226.448 377.432 227.839 376.92 229.09C379.054 229.446 381.241 229.287 383.301 228.626C385.36 227.965 387.232 226.821 388.76 225.29C389.299 227.451 389.201 229.723 388.48 231.83C395.68 230.44 400.08 223.32 406 218.99C406.572 218.512 407.263 218.197 408 218.08C409.27 217.97 410.33 218.92 411.4 219.6C413.253 220.725 415.433 221.189 417.584 220.914C419.735 220.64 421.729 219.644 423.24 218.09C426.39 214.67 426.53 209.41 425.52 204.87C424.51 200.33 422.52 196 422.09 191.37C421.46 185.06 423.66 178.47 421.64 172.47C419.93 167.38 415.45 163.69 410.64 161.27C405.83 158.85 400.64 157.44 395.73 155.27C391.07 153.18 386.73 150.38 381.89 148.73C374.89 146.34 367.28 146.53 359.89 146.73" fill="#794F6A"/>
<path d="M364.55 333.53C364.55 333.53 372.55 279.7 304.05 282.36L269.55 286.95C269.55 286.95 302.46 292.87 310.38 293.74L311.22 293.86C318.55 295.2 343.89 293.53 364.55 333.53Z" fill="#FF6584"/>
<path opacity="0.1" d="M320.8 548.2V547.58C348.89 523.29 320.8 548.2 320.8 548.2Z" fill="black"/>
<path d="M260.37 550.09C256.345 550.45 252.295 550.45 248.27 550.09L164.12 427.61C165.67 423.55 169.38 421.13 172.93 419.7L260.37 550.09Z" fill="#575988"/>
<path d="M205.8 418.95L201.8 423.7C201.8 423.7 171.46 373.3 164.94 347.7C166.18 344.79 168.05 344.17 168.05 344.17C168.05 344.17 171.21 341.84 176.3 338.17C178.19 350.21 184.64 379.65 205.8 418.95Z" fill="#575988"/>
<path d="M228.05 403.43L220.05 407.93C198.21 382.37 196.35 339.43 196.55 322.32L202.31 318.18C203.09 340.65 228.05 403.43 228.05 403.43Z" fill="#575988"/>
<path opacity="0.1" d="M249.05 398.95C248.8 402.2 239.55 435.2 253.05 440.7C266.55 446.2 249.05 398.95 249.05 398.95Z" fill="black"/>
<path opacity="0.1" d="M278.05 455.7C278.55 457.45 283.05 514.45 292.8 509.95C302.55 505.45 297.3 440.45 297.3 440.45L278.05 455.7Z" fill="black"/>
<path opacity="0.1" d="M742.88 231.03C742.901 247.216 736.633 262.777 725.4 274.43C720.825 275.399 716.106 275.481 711.5 274.67C709.145 274.372 706.907 273.473 705 272.06C703.164 270.366 701.726 268.286 700.79 265.97C697.14 258.12 695.27 249.05 690.15 242.33C685.03 235.61 674.64 232.66 669.7 239.55C667.01 243.29 666.56 249.04 662.97 251.63C658.66 254.75 652.97 251.08 649.62 246.63C639.72 233.63 643.11 208.07 624.23 204.48L623.47 204.35C629.524 191.441 639.8 180.982 652.6 174.7C665.4 168.418 679.96 166.689 693.876 169.798C707.791 172.907 720.23 180.669 729.14 191.801C738.049 202.934 742.896 216.771 742.88 231.03V231.03Z" fill="black"/>
<path d="M625.23 203.55C622.17 202.96 618.62 203.04 616.57 200.4C615.36 198.84 615.01 196.68 614.72 194.63C613.49 185.77 612.82 176.26 616.35 168.23C622.14 155.06 637.04 150.66 649.99 151.64C662.94 152.62 675.65 157.45 688.6 156.64C698.12 156.02 707.51 152.34 717 153.39C724.51 154.23 731.51 157.96 738.26 161.77C744.58 165.33 751.04 169.16 755.52 175.34C762.1 184.39 763.34 196.89 763.52 208.62C763.74 222.39 762.77 236.69 756.99 248.81C748.61 266.4 729.92 276.87 712.5 273.72C710.145 273.422 707.907 272.523 706 271.11C704.17 269.413 702.736 267.334 701.8 265.02C698.14 257.16 696.27 248.1 691.15 241.37C686.03 234.64 675.64 231.71 670.7 238.6C668.01 242.33 667.56 248.09 663.97 250.68C659.66 253.79 653.97 250.12 650.62 245.68C640.72 232.67 644.11 207.13 625.23 203.55Z" fill="#945B79"/>
<path d="M777.41 174.48C786.94 179.03 793.55 187.89 799.76 196.42C804.93 203.51 810.28 211.09 810.96 219.83C811.23 223.41 810.7 227.05 811.38 230.57C813.77 243 829.38 248.57 833.94 260.41C836.06 265.99 835.39 272.2 834.46 278.1C833.123 286.635 831.324 295.09 829.07 303.43C827.72 308.43 826.19 313.63 827.22 318.71C828.01 322.65 830.22 326.11 831.98 329.71C836.57 339.42 837.36 350.43 837.71 361.16C838.06 371.89 838.05 382.81 841.26 393.05C844.47 403.29 851.55 412.97 861.76 416.28C858.331 418.618 854.356 420.03 850.22 420.38C849.61 423.73 851.52 427.14 854.22 429.26C856.92 431.38 860.22 432.48 863.44 433.53C861.243 435.081 858.715 436.101 856.057 436.51C853.399 436.92 850.682 436.707 848.12 435.89C843.85 434.49 840.32 431.49 836.91 428.55L817.74 412.06C815.179 409.987 812.812 407.684 810.67 405.18C798.27 389.77 805.67 366.42 798.75 347.91C793.11 332.86 777.95 320.64 779.34 304.63C779.72 300.15 781.44 295.91 782.88 291.63C787.987 276.102 789.592 259.635 787.577 243.413C785.563 227.192 779.98 211.617 771.23 197.81C769.04 194.41 766.5 190.99 762.85 189.24C757.3 186.59 749.37 187.73 746.22 182.44C744.55 179.65 744.22 174.74 744.07 171.61C754.25 169.28 767.89 169.93 777.41 174.48Z" fill="#945B79"/>
<path opacity="0.1" d="M290.42 343.79C295.1 313.03 333.55 301.92 353.96 325.43C359.86 332.25 365.09 339.72 368.05 347.19C378.05 372.44 378.8 374.69 378.8 374.69C378.8 374.69 317.05 386.69 317.55 395.69L289.55 350.94C289.55 350.94 289.76 348.14 290.42 343.79Z" fill="black"/>
<path d="M290.42 340.79C295.1 310.03 333.55 298.92 353.96 322.43C359.86 329.25 365.09 336.72 368.05 344.19C378.05 369.44 378.8 371.69 378.8 371.69C378.8 371.69 317.05 383.69 317.55 392.69L289.55 347.94C289.55 347.94 289.76 345.14 290.42 340.79Z" fill="#DCE6F2"/>
<path opacity="0.1" d="M307.8 301.32C308.55 302.57 338.05 338.57 353.55 343.7C369.05 348.83 307.8 301.32 307.8 301.32Z" fill="black"/>
<path opacity="0.1" d="M181.05 417.7C181.05 417.7 259.05 509.7 269.05 546.95Z" fill="black"/>
<path opacity="0.1" d="M184.05 332.7C184.05 332.7 201.05 420.7 234.05 457.7C267.05 494.7 301.05 557.7 301.05 557.7" stroke="black" stroke-width="2" stroke-miterlimit="10"/>
<g opacity="0.1">
<path opacity="0.1" d="M425.06 204.67C425.127 207.595 424.116 210.442 422.22 212.67C420.709 214.224 418.715 215.22 416.564 215.494C414.413 215.769 412.233 215.305 410.38 214.18C409.31 213.5 408.25 212.55 406.98 212.66C406.243 212.777 405.552 213.092 404.98 213.57C399.35 217.69 395.09 224.33 388.48 226.16C388.714 227.927 388.536 229.724 387.96 231.41C395.16 230.02 399.56 222.9 405.48 218.57C406.052 218.092 406.743 217.777 407.48 217.66C408.75 217.55 409.81 218.5 410.88 219.18C412.733 220.305 414.913 220.769 417.064 220.494C419.215 220.22 421.209 219.224 422.72 217.67C425.81 214.27 426 209.15 425.06 204.67Z" fill="black"/>
<path opacity="0.1" d="M421.07 185.91C421.15 186.73 421.29 187.54 421.45 188.35C421.45 183.35 422.64 178.15 421.45 173.35C421.47 177.43 420.65 181.75 421.07 185.91Z" fill="black"/>
<path opacity="0.1" d="M387.76 219.83C386.232 221.361 384.36 222.505 382.301 223.166C380.241 223.827 378.054 223.986 375.92 223.63C376.432 222.379 376.489 220.988 376.08 219.7C371.01 222.53 365.735 224.977 360.3 227.02L359.73 224.15C352.07 227.89 352.67 240.58 345.01 244.32C340.45 246.55 334.01 244.94 330.86 248.96C330.16 249.87 329.75 250.96 329.11 251.96C326.61 255.79 321.21 256.62 316.75 255.61C309.33 253.93 303.28 248.33 299.35 241.82C295.42 235.31 293.3 227.89 291.23 220.57L287.15 206.16C286.48 203.76 285.8 201.36 285.36 198.91C285.36 199.65 285.36 200.38 285.47 201.11C285.888 204.52 286.617 207.884 287.65 211.16L291.73 225.57C293.8 232.89 295.91 240.31 299.85 246.82C303.79 253.33 309.85 258.93 317.25 260.61C321.71 261.61 327.11 260.79 329.61 256.96C330.25 255.96 330.66 254.89 331.36 253.96C334.46 249.96 340.95 251.55 345.51 249.32C353.17 245.58 352.57 232.89 360.23 229.15L360.8 232.02C366.225 229.976 371.49 227.529 376.55 224.7C376.959 225.988 376.902 227.379 376.39 228.63C378.419 228.966 380.498 228.836 382.469 228.25C384.441 227.665 386.253 226.639 387.77 225.25C388.197 223.468 388.193 221.61 387.76 219.83V219.83Z" fill="black"/>
</g>
<path opacity="0.1" d="M368.46 285.76C363.08 288.86 350.58 295.76 348.05 294.58C345.35 293.33 315.89 283.02 306.05 279.58C306.7 276.24 309.05 267.74 316.84 264.95C318.417 264.526 320.072 264.481 321.67 264.82L351.55 276.64C359.92 280.89 366.87 284.84 368.46 285.76Z" fill="black"/>
<path d="M368.46 282.76C363.08 285.86 350.58 292.76 348.05 291.58C345.35 290.33 315.89 280.02 306.05 276.58C306.7 273.24 309.05 264.74 316.84 261.95C318.417 261.526 320.072 261.481 321.67 261.82L351.55 273.64C359.92 277.89 366.87 281.84 368.46 282.76Z" fill="#DCE6F2"/>
<path opacity="0.1" d="M763.55 207.43C763.26 218.7 761.73 229.97 757.04 239.82C748.66 257.41 729.97 267.88 712.55 264.73C710.195 264.432 707.957 263.533 706.05 262.12C704.22 260.423 702.786 258.344 701.85 256.03C698.19 248.17 696.32 239.11 691.2 232.38C686.08 225.65 675.69 222.72 670.75 229.61C668.06 233.34 667.61 239.1 664.02 241.69C659.71 244.8 654.02 241.13 650.67 236.69C640.77 223.69 644.16 198.12 625.28 194.54C622.22 193.95 618.67 194.03 616.62 191.39C615.41 189.83 615.06 187.67 614.77 185.62C614.43 183.21 614.14 180.75 613.97 178.28C613.622 183.739 613.891 189.221 614.77 194.62C615.06 196.67 615.41 198.83 616.62 200.39C618.67 203.03 622.22 202.95 625.28 203.54C644.16 207.12 640.77 232.66 650.67 245.69C654.01 250.08 659.67 253.75 664.02 250.69C667.61 248.1 668.02 242.34 670.75 238.61C675.69 231.72 686.08 234.66 691.2 241.38C696.32 248.1 698.2 257.17 701.85 265.03C702.786 267.344 704.22 269.423 706.05 271.12C707.957 272.533 710.195 273.432 712.55 273.73C729.97 276.88 748.66 266.41 757.04 248.82C762.82 236.7 763.79 222.4 763.57 208.63C763.55 208.19 763.55 207.79 763.55 207.43Z" fill="black"/>
<g opacity="0.1">
<path opacity="0.1" d="M828.94 255.43C831.06 261.01 830.39 267.22 829.46 273.12C828.122 281.648 826.323 290.097 824.07 298.43C822.72 303.43 821.19 308.63 822.22 313.71C823.01 317.65 825.22 321.11 826.98 324.71C831.57 334.42 832.36 345.43 832.71 356.16C833.06 366.89 833.05 377.81 836.26 388.05C838.34 395.029 842.313 401.294 847.74 406.15C844.873 402.309 842.682 398.007 841.26 393.43C838.05 383.19 838.05 372.27 837.71 361.54C837.37 350.81 836.57 339.8 831.98 330.1C830.26 326.47 827.98 323.01 827.22 319.1C826.22 314.02 827.72 308.81 829.07 303.81C831.326 295.454 833.125 286.982 834.46 278.43C835.39 272.53 836.06 266.31 833.94 260.73C832.23 256.26 828.94 252.73 825.37 249.3C826.865 251.15 828.069 253.217 828.94 255.43V255.43Z" fill="black"/>
<path opacity="0.1" d="M861.76 416.68C859.087 415.796 856.575 414.486 854.32 412.8C851.49 414.272 848.398 415.169 845.22 415.44C844.61 418.79 846.52 422.2 849.22 424.32C849.757 424.752 850.325 425.143 850.92 425.49C850.224 424.024 849.991 422.382 850.25 420.78C854.373 420.416 858.335 419.005 861.76 416.68V416.68Z" fill="black"/>
<path opacity="0.1" d="M757.82 184.32C754.01 182.5 749.08 182.46 745.34 180.91C745.552 181.605 745.837 182.275 746.19 182.91C749.34 188.19 757.27 187.05 762.82 189.71C763.521 190.062 764.19 190.473 764.82 190.94C763.086 188.176 760.677 185.898 757.82 184.32V184.32Z" fill="black"/>
<path opacity="0.1" d="M855.18 430.43C851.349 432.063 847.058 432.266 843.09 431C838.82 429.6 835.29 426.6 831.88 423.66L812.71 407.17C811.8 406.39 810.9 405.6 810.02 404.8C810.22 405.07 810.42 405.35 810.64 405.62C812.78 408.126 815.146 410.429 817.71 412.5L836.88 429C840.29 431.93 843.82 434.94 848.09 436.34C850.653 437.156 853.37 437.367 856.029 436.955C858.687 436.544 861.213 435.522 863.41 433.97C860.516 433.177 857.746 431.986 855.18 430.43Z" fill="black"/>
<path opacity="0.1" d="M794.76 191.43C799.93 198.52 805.28 206.1 805.96 214.84C806.23 218.42 805.7 222.06 806.38 225.58C807.46 231.21 811.27 235.44 815.53 239.47C813.471 237 812.047 234.065 811.38 230.92C810.7 227.39 811.23 223.75 810.96 220.17C810.28 211.43 804.96 203.85 799.76 196.77C796 191.6 792.08 186.32 787.47 181.94C790.04 184.98 792.43 188.22 794.76 191.43Z" fill="black"/>
</g>
<path opacity="0.1" d="M750.89 170.7C750.89 170.7 744.89 180.7 761.89 189.03L762.89 186.36L750.89 170.7Z" fill="black"/>
<path d="M749.89 170.7C749.89 170.7 743.89 180.7 760.89 189.03L761.89 186.36L749.89 170.7Z" fill="#FF6584"/>
<path d="M986.6 736.69C986.6 736.69 992.1 743.88 984.07 754.69C976.04 765.5 969.42 774.69 972.07 781.46C972.07 781.46 984.19 761.31 994.07 761.03C1003.95 760.75 997.45 748.81 986.6 736.69Z" fill="#FF6584"/>
<path opacity="0.1" d="M986.6 736.69C987.08 737.384 987.46 738.141 987.73 738.94C997.35 750.25 1002.47 760.8 993.22 761.06C984.61 761.31 974.28 776.71 971.8 780.6C971.88 780.9 971.98 781.19 972.09 781.49C972.09 781.49 984.21 761.34 994.09 761.06C1003.97 760.78 997.45 748.81 986.6 736.69Z" fill="black"/>
<path d="M996.82 745.85C996.82 748.38 996.53 750.43 996.18 750.43C995.83 750.43 995.55 748.43 995.55 745.85C995.55 743.27 995.9 744.51 996.25 744.51C996.6 744.51 996.82 743.32 996.82 745.85Z" fill="#FFD037"/>
<path d="M1000.32 748.87C998.1 750.08 996.16 750.81 996 750.5C995.84 750.19 997.49 748.96 999.71 747.75C1001.93 746.54 1001.06 747.42 1001.23 747.75C1001.4 748.08 1002.55 747.66 1000.32 748.87Z" fill="#FFD037"/>
<path d="M957.55 736.69C957.55 736.69 952.05 743.88 960.08 754.69C968.11 765.5 974.73 774.69 972.08 781.46C972.08 781.46 959.97 761.31 950.08 761.03C940.19 760.75 946.74 748.81 957.55 736.69Z" fill="#FF6584"/>
<path opacity="0.1" d="M957.55 736.69C957.07 737.384 956.69 738.141 956.42 738.94C946.8 750.25 941.68 760.8 950.93 761.06C959.54 761.31 969.87 776.71 972.35 780.6C972.268 780.902 972.168 781.2 972.05 781.49C972.05 781.49 959.94 761.34 950.05 761.06C940.16 760.78 946.74 748.81 957.55 736.69Z" fill="black"/>
<path d="M947.37 745.85C947.37 748.38 947.66 750.43 948.01 750.43C948.36 750.43 948.64 748.43 948.64 745.85C948.64 743.27 948.29 744.51 947.94 744.51C947.59 744.51 947.37 743.32 947.37 745.85Z" fill="#FFD037"/>
<path d="M943.87 748.87C946.09 750.08 948.02 750.81 948.19 750.5C948.36 750.19 946.7 748.96 944.48 747.75C942.26 746.54 943.13 747.42 942.96 747.75C942.79 748.08 941.65 747.66 943.87 748.87Z" fill="#FFD037"/>
<path d="M949.12 780.55C949.12 780.55 964.48 780.07 969.12 776.78C973.76 773.49 992.75 769.54 993.9 774.78C995.05 780.02 1016.98 801.07 999.64 801.21C982.3 801.35 959.35 798.51 954.73 795.7C950.11 792.89 949.12 780.55 949.12 780.55Z" fill="#A8A8A8"/>
<path opacity="0.2" d="M999.94 799.43C982.6 799.57 959.65 796.73 955.03 793.92C951.51 791.77 950.11 784.08 949.64 780.54H949.12C949.12 780.54 950.12 792.93 954.72 795.75C959.32 798.57 982.29 801.4 999.63 801.26C1004.63 801.26 1006.36 799.44 1006.27 796.8C1005.55 798.43 1003.66 799.43 999.94 799.43Z" fill="black"/>
<path d="M262.64 762.92C264.476 761.427 265.815 759.411 266.48 757.14C266.97 754.84 265.99 752.08 263.8 751.24C261.34 750.3 258.71 752.01 256.72 753.73C254.73 755.45 252.44 757.42 249.83 757.05C251.172 755.835 252.176 754.292 252.744 752.572C253.312 750.853 253.424 749.016 253.07 747.24C252.956 746.504 252.645 745.813 252.17 745.24C250.81 743.78 248.33 744.41 246.69 745.56C241.49 749.21 240.04 756.28 240.02 762.63C239.49 760.34 239.93 757.95 239.92 755.63C239.91 753.31 239.26 750.63 237.28 749.41C236.057 748.733 234.678 748.388 233.28 748.41C230.94 748.32 228.34 748.56 226.74 750.27C224.74 752.39 225.27 755.96 227 758.27C228.73 760.58 231.35 762.08 233.76 763.69C235.7 764.843 237.354 766.419 238.6 768.3C238.746 768.565 238.866 768.843 238.96 769.13H253.55C256.847 767.48 259.905 765.391 262.64 762.92V762.92Z" fill="#FF6584"/>
<path d="M146.21 778.69C146.21 778.69 132.21 730.99 148.84 695.87C155.93 681.187 158.071 664.602 154.94 648.6C153.386 641.015 151.144 633.587 148.24 626.41" stroke="#535461" stroke-width="2" stroke-miterlimit="10"/>
<path d="M158.63 604.22C158.63 610.06 148.04 627.02 148.04 627.02C148.04 627.02 137.45 610.02 137.45 604.22C137.45 601.411 138.566 598.718 140.552 596.732C142.538 594.746 145.231 593.63 148.04 593.63C150.849 593.63 153.542 594.746 155.528 596.732C157.514 598.718 158.63 601.411 158.63 604.22V604.22Z" fill="#FF748F"/>
<path d="M176.13 636.6C172.95 641.51 154.85 649.99 154.85 649.99C154.85 649.99 155.17 629.99 158.35 625.1C159.904 622.809 162.294 621.217 165.007 620.666C167.72 620.115 170.541 620.648 172.866 622.152C175.19 623.656 176.834 626.01 177.444 628.71C178.054 631.411 177.582 634.243 176.13 636.6V636.6Z" fill="#FF748F"/>
<path d="M175.36 691.95C170.14 694.58 150.23 692.76 150.23 692.76C150.23 692.76 160.61 675.68 165.83 673.04C167.075 672.381 168.439 671.976 169.842 671.851C171.245 671.725 172.659 671.881 174.001 672.308C175.344 672.736 176.587 673.427 177.659 674.342C178.731 675.256 179.609 676.375 180.243 677.633C180.877 678.891 181.254 680.262 181.351 681.668C181.448 683.073 181.264 684.484 180.809 685.817C180.355 687.15 179.638 688.38 178.703 689.433C177.767 690.486 176.631 691.342 175.36 691.95Z" fill="#FF748F"/>
<path d="M165.35 733.69C160.65 737.17 140.72 738.69 140.72 738.69C140.72 738.69 148.06 720.1 152.72 716.62C153.829 715.711 155.112 715.036 156.49 714.637C157.868 714.239 159.313 714.124 160.736 714.301C162.16 714.477 163.533 714.941 164.772 715.664C166.011 716.387 167.09 717.355 167.944 718.508C168.797 719.66 169.408 720.975 169.739 722.371C170.069 723.767 170.112 725.215 169.866 726.628C169.62 728.042 169.089 729.39 168.306 730.592C167.523 731.794 166.503 732.824 165.31 733.62L165.35 733.69Z" fill="#FF748F"/>
<path d="M132.62 651.12C136.81 655.2 156.35 659.42 156.35 659.42C156.35 659.42 151.56 640.01 147.35 635.93C146.361 634.92 145.181 634.117 143.877 633.571C142.574 633.024 141.174 632.744 139.76 632.746C138.347 632.749 136.948 633.035 135.647 633.586C134.346 634.138 133.168 634.945 132.183 635.959C131.198 636.973 130.427 638.174 129.913 639.491C129.4 640.808 129.156 642.214 129.195 643.627C129.233 645.04 129.555 646.431 130.14 647.718C130.724 649.005 131.561 650.162 132.6 651.12H132.62Z" fill="#FF748F"/>
<path d="M121.55 700.09C126.77 702.72 146.68 700.91 146.68 700.91C146.68 700.91 136.31 683.82 131.08 681.19C129.839 680.564 128.487 680.189 127.101 680.086C125.715 679.983 124.322 680.153 123.002 680.588C121.682 681.023 120.461 681.714 119.408 682.621C118.355 683.528 117.491 684.634 116.865 685.875C116.239 687.116 115.864 688.468 115.761 689.854C115.658 691.24 115.828 692.633 116.263 693.953C116.699 695.273 117.389 696.494 118.296 697.547C119.203 698.6 120.309 699.464 121.55 700.09V700.09Z" fill="#FF748F"/>
<path d="M117.29 749.17C121.99 752.64 141.92 754.17 141.92 754.17C141.92 754.17 134.58 735.57 129.92 732.09C127.658 730.581 124.903 730 122.225 730.467C119.547 730.934 117.151 732.413 115.533 734.597C113.915 736.782 113.199 739.505 113.534 742.203C113.868 744.901 115.228 747.367 117.33 749.09L117.29 749.17Z" fill="#FF748F"/>
<path d="M158.63 604.22C158.63 610.06 148.04 627.02 148.04 627.02C148.04 627.02 137.45 610.02 137.45 604.22C137.45 601.411 138.566 598.718 140.552 596.732C142.538 594.746 145.231 593.63 148.04 593.63C150.849 593.63 153.542 594.746 155.528 596.732C157.514 598.718 158.63 601.411 158.63 604.22V604.22Z" fill="#FF748F"/>
<path d="M176.13 636.6C172.95 641.51 154.85 649.99 154.85 649.99C154.85 649.99 155.17 629.99 158.35 625.1C159.904 622.809 162.294 621.217 165.007 620.666C167.72 620.115 170.541 620.648 172.866 622.152C175.19 623.656 176.834 626.01 177.444 628.71C178.054 631.411 177.582 634.243 176.13 636.6V636.6Z" fill="#FF6584"/>
<path d="M175.36 691.95C170.14 694.58 150.23 692.76 150.23 692.76C150.23 692.76 160.61 675.68 165.83 673.04C167.075 672.381 168.439 671.976 169.842 671.851C171.245 671.725 172.659 671.881 174.001 672.308C175.344 672.736 176.587 673.427 177.659 674.342C178.731 675.256 179.609 676.375 180.243 677.633C180.877 678.891 181.254 680.262 181.351 681.668C181.448 683.073 181.264 684.484 180.809 685.817C180.355 687.15 179.638 688.38 178.703 689.433C177.767 690.486 176.631 691.342 175.36 691.95Z" fill="#FF6584"/>
<path d="M165.35 733.69C160.65 737.17 140.72 738.69 140.72 738.69C140.72 738.69 148.06 720.1 152.72 716.62C153.829 715.711 155.112 715.036 156.49 714.637C157.868 714.239 159.313 714.124 160.736 714.301C162.16 714.477 163.533 714.941 164.772 715.664C166.011 716.387 167.09 717.355 167.944 718.508C168.797 719.66 169.408 720.975 169.739 722.371C170.069 723.767 170.112 725.215 169.866 726.628C169.62 728.042 169.089 729.39 168.306 730.592C167.523 731.794 166.503 732.824 165.31 733.62L165.35 733.69Z" fill="#FF6584"/>
<path d="M132.62 651.12C136.81 655.2 156.35 659.42 156.35 659.42C156.35 659.42 151.56 640.01 147.35 635.93C146.361 634.92 145.181 634.117 143.877 633.571C142.574 633.024 141.174 632.744 139.76 632.746C138.347 632.749 136.948 633.035 135.647 633.586C134.346 634.138 133.168 634.945 132.183 635.959C131.198 636.973 130.427 638.174 129.913 639.491C129.4 640.808 129.156 642.214 129.195 643.627C129.233 645.04 129.555 646.431 130.14 647.718C130.724 649.005 131.561 650.162 132.6 651.12H132.62Z" fill="#FF6584"/>
<path d="M121.55 700.09C126.77 702.72 146.68 700.91 146.68 700.91C146.68 700.91 136.31 683.82 131.08 681.19C129.839 680.564 128.487 680.189 127.101 680.086C125.715 679.983 124.322 680.153 123.002 680.588C121.682 681.023 120.461 681.714 119.408 682.621C118.355 683.528 117.491 684.634 116.865 685.875C116.239 687.116 115.864 688.468 115.761 689.854C115.658 691.24 115.828 692.633 116.263 693.953C116.699 695.273 117.389 696.494 118.296 697.547C119.203 698.6 120.309 699.464 121.55 700.09V700.09Z" fill="#FF6584"/>
<path d="M117.29 749.17C121.99 752.64 141.92 754.17 141.92 754.17C141.92 754.17 134.58 735.57 129.92 732.09C127.658 730.581 124.903 730 122.225 730.467C119.547 730.934 117.151 732.413 115.533 734.597C113.915 736.782 113.199 739.505 113.534 742.203C113.868 744.901 115.228 747.367 117.33 749.09L117.29 749.17Z" fill="#FF6584"/>
<path d="M113 775.69C113 775.69 130.11 772.29 134.67 767.76C139.23 763.23 159.77 755.3 162.05 760.96C164.33 766.62 192.85 785.88 173.46 789.28C154.07 792.68 127.83 793.81 122.12 791.54C116.41 789.27 113 775.69 113 775.69Z" fill="#A8A8A8"/>
<path opacity="0.2" d="M173.46 787.17C154.06 790.57 127.83 791.7 122.12 789.44C117.78 787.71 114.76 779.44 113.57 775.57L113 775.69C113 775.69 116.42 789.28 122.12 791.54C127.82 793.8 154.06 792.68 173.46 789.28C179.05 788.28 180.65 785.99 180.05 783.08C179.55 784.98 177.62 786.43 173.46 787.17Z" fill="black"/>
</g>
<defs>
<linearGradient id="paint0_linear" x1="513.39" y1="806.36" x2="513.39" y2="137.28" gradientUnits="userSpaceOnUse">
<stop stop-color="#808080" stop-opacity="0.25"/>
<stop offset="0.54" stop-color="#808080" stop-opacity="0.12"/>
<stop offset="1" stop-color="#808080" stop-opacity="0.1"/>
</linearGradient>
<clipPath id="clip0">
<rect width="1097.1" height="820.85" fill="white"/>
</clipPath>
</defs>
</svg>
