
<svg width="170px" height="126px" viewBox="0 0 170 126" version="1.1" xmlns="http://www.w3.org/2000/svg" xmlns:xlink="http://www.w3.org/1999/xlink">
    <defs>
        <linearGradient x1="50%" y1="0%" x2="50%" y2="100%" id="linearGradient-1">
            <stop stop-color="#6236FF" offset="0%"></stop>
            <stop stop-color="#DAE4FA" stop-opacity="0.44" offset="100%"></stop>
        </linearGradient>
        <linearGradient x1="60.3305785%" y1="0%" x2="39.6694215%" y2="100%" id="linearGradient-2">
            <stop stop-color="#32C5FF" offset="0%"></stop>
            <stop stop-color="#B620E0" offset="51.2583893%"></stop>
            <stop stop-color="#F7B500" offset="100%"></stop>
        </linearGradient>
        <linearGradient x1="50%" y1="0%" x2="50%" y2="100%" id="linearGradient-3">
            <stop stop-color="#C54874" offset="0%"></stop>
            <stop stop-color="#A71EA0" offset="100%"></stop>
        </linearGradient>
        <linearGradient x1="50%" y1="0%" x2="50%" y2="100%" id="linearGradient-4">
            <stop stop-color="#E7EEFD" offset="0%"></stop>
            <stop stop-color="#CAD9FB" offset="100%"></stop>
        </linearGradient>
    </defs>
    <g id="Page-1" stroke="none" stroke-width="1" fill="none" fill-rule="evenodd">
        <g id="Illustration3" fill-rule="nonzero">
            <polygon id="Path" fill="url(#linearGradient-1)" points="0 80.0652174 56.0487304 109 117 88.673913 50.3511008 54"></polygon>
            <polygon id="Path" fill="#DAE4FA" points="57 27.5045114 107 1 107 4.82605524 106.210454 4.38783835 59.8948443 29"></polygon>
            <polygon id="Path" fill="#FFFFFF" points="60 28.9048868 65.9240206 32 112 7.17800049 107.129165 4.44342883 106.339216 4"></polygon>
            <polygon id="Path" fill="url(#linearGradient-2)" points="68 32.6557018 68 116 118 89.5855263 117.867752 6"></polygon>
            <polygon id="Path" fill="#4B5361" points="56 108.425156 56 26.4189189 106.424867 0 107.755307 0.836798337 57.1974192 27.0233264 60.1243373 28.5008732 66.1114334 31.5229106 112.678243 7.28695946 116.802581 5.14033264 118 5.97713098 67.8411723 32.3960499 67.8411723 115"></polygon>
            <polygon id="Path" fill="url(#linearGradient-3)" points="56 108.394062 56 26 57.2134804 26.6072659 60.1796577 28.0918003 66.2470598 31.1281296 68 32.0053981 68 115"></polygon>
            <path d="M95.4762517,68.378977 C98.8258462,55.2957535 81.4057203,37.3069562 72.2768392,29.9481116 L69,28.4425745 L78.034965,23 L81.2126573,24.4513532 L81.2126573,25.49536 C84.1716084,27.3859894 91.8092448,33.8191125 98.6862797,44.4258437 C107.282573,57.684439 105.01979,63.5046073 104.357385,66.2326675 C104.131748,67.1627431 102.894909,68.372446 101.259818,69.566184 C98.0987692,71.8740775 93.4495664,74.1219817 91.7421958,74.1725372 C89.1515385,74.249217 87.7656224,74.5123957 83.3120979,69.3121972 C82.4761259,68.3359202 81.6128112,67.6426572 80.7601958,67.1661295 C80.4456364,67.4723651 78.6151049,71.3080497 83.2959301,80.2924099 C95.4762517,103.671049 114.064266,110.24326 120,114.677144 L107.27972,111.895384 L110.712531,119 C94.0839161,111.774438 74.4126573,86.7032789 72.3484056,78.9607933 C70.6969091,72.7669016 72.8296364,68.4970204 74.1026154,67.1363768 C74.2642937,67.0335726 74.4516503,66.9310103 74.6618322,66.8342534 C78.0354406,65.0149822 84.0572448,61.8212795 85.0004476,61.5346372 C86.2477483,61.1555921 89.8398601,62.3536842 91.3527413,63.9470281 C92.5631888,65.2215581 94.606042,67.4326948 95.4762517,68.378977 Z" id="Path" fill="#EE7E79"></path>
            <path d="M72.6116637,79.5234299 C70.9346334,73.4165756 73.1003348,69.2066954 74.3929954,67.8651717 C75.6250549,67.1043787 78.3301294,66.3619497 81.1535087,67.8945064 C80.8340859,68.1964386 78.9752525,71.9782237 83.728448,80.8363344 C96.0970898,103.886454 114.972493,110.366311 121,114.73789 L108.083052,111.995219 L111.568938,119 C94.6832272,111.875973 74.7078309,87.157117 72.6116637,79.5234299 Z" id="Path" fill="#EE7E79"></path>
            <path d="M119.826143,84.7292808 C119.742471,84.0958294 117.907248,82.5516424 117,81.8586706 C120.349662,76.4145748 123.699072,80.2750423 124.431897,81.0669759 C125.018107,81.7004273 127.048734,82.3207315 127.990866,82.5516424 C128.200173,85.4220136 124.745857,84.9272044 124.431897,84.9272044 C124.117938,84.9272044 123.908631,84.0363089 122.861846,83.9373471 C121.815061,83.8383852 122.547633,84.7292808 121.710407,84.9272044 C120.872929,85.1251281 120.558969,84.1352707 120.349662,84.2342326 C120.140103,84.3334334 119.930797,85.5212144 119.826143,84.7292808 Z" id="Path" fill="#EDC7C5"></path>
            <path d="M117.308937,81.5357865 C116.593045,82.0942118 115.552228,82.0344923 115.121156,81.9347993 C114.624042,81.2367074 115.817356,80.6385494 115.817356,79.1426727 C115.817356,77.6470368 118.999605,75.652695 121.485654,76.0517078 C123.971704,76.4504799 124.568481,78.1455018 124.667903,79.4419925 C124.767326,80.7382424 126.258908,81.3364004 125.960639,81.5357865 C125.662371,81.7354133 123.076899,81.5357865 122.977236,80.3392296 C122.877813,79.1426727 121.883345,79.5416855 121.783923,79.8407645 C121.6845,80.1398435 121.485654,80.6385494 120.889118,80.3392296 C120.292341,80.0401505 118.203983,80.8379354 117.308937,81.5357865 Z" id="Path" fill="#4B5361"></path>
            <path d="M114.161221,111.449695 C112.738334,110.70962 112.916356,107.714564 113.183067,106.309391 C113.291083,105.589922 115.761701,106.309391 115.672798,106.617983 C115.583894,106.926326 116.473145,110.93554 116.917878,111.449695 C117.362396,111.963601 115.939723,112.374975 114.161221,111.449695 Z" id="Path" fill="#EDC7C5"></path>
            <path d="M130.001248,108.416089 C129.921319,106.308647 133.700909,102.984666 135.600846,101.586224 L145.700116,93 C145.727403,93.0237983 145.755656,93.0501884 145.784874,93.0789348 C147.013989,94.2323258 149.408953,96.9139892 149.799903,99.0492351 C150.29976,101.781322 156.499427,108.416089 158.599064,111.245726 C160.698944,114.075127 168.898519,119.05132 168.99849,120.124598 C169.078419,120.98322 165.965304,121.327941 164.398846,121.392974 C153.839563,115.226397 146.063055,108.090925 143.494711,105.293804 C141.786265,106.796629 139.910476,108.103177 138.600708,108.903836 C139.900576,109.391818 146.400156,120.612344 146.400156,121.392974 C146.400156,122.173604 143.400294,121.97827 142.900196,121.97827 C142.40034,121.97827 141.500357,120.807443 141.400386,120.124598 C141.300415,119.441517 130.101219,111.050392 130.001248,108.416089 Z" id="Path" fill="#FFCB56"></path>
            <path d="M112,105.860902 C112.241873,92.9181437 119.691501,86.7047951 123.38602,85.2160555 C126.207462,85.6923275 126.9798,83.9586206 127.01338,83.0324429 C128.726442,81.9698792 132.494934,80.163545 133.86514,81.4384776 C135.578202,83.0324429 142.842897,83.7328288 144.39974,91.8661266 C145.219771,92.3814688 145.790142,92.7733685 145.956582,92.9576933 C146.762743,93.8510329 136.0819,102.287783 135.578202,102.287783 C135.07426,102.287783 134.570561,101.096744 133.86514,100.600337 C133.159962,100.104171 131.4469,99.2108311 131.346161,98.4167248 C131.245421,97.6228582 130.33852,96.5310518 128.323239,95.7369455 C126.308202,94.9428392 127.618061,93.4540996 124.091442,91.8661266 C121.27,90.5955086 117.407581,101.262133 115.828839,106.754242 C113.491386,107.46877 112.302219,106.456542 112,105.860902 Z" id="Path" fill="url(#linearGradient-4)"></path>
            <path d="M135,125.02805 C135,123.897559 139.730449,122.538434 142.095674,122 L146.165393,122 C146.443595,123.00935 147,125.128961 147,125.532604 C147,126.037401 135,126.441043 135,125.02805 Z" id="Path" fill="#B6C7E5"></path>
            <path d="M170,124.076331 C170,123.032202 168.990806,121.590503 168.48633,121 C167.847084,121.155336 165.943238,121.596581 163.440358,122.118646 C160.937722,122.64071 159.437456,124.2006 159,124.915372 C162.666585,125.070708 170,125.120461 170,124.076331 Z" id="Path" fill="#B6C7E5"></path>
        </g>
    </g>
</svg>