<svg width="455" height="482" viewBox="0 0 455 482" fill="none" xmlns="http://www.w3.org/2000/svg">
<path d="M368.6 309.4C340.9 309.4 316.2 322.6 300.4 343L168.1 269.1C171.2 260.2 172.9 250.6 172.9 240.7C172.9 230.7 171.2 221.2 168 212.2L300.2 138.4C315.9 158.9 340.7 172.2 368.5 172.2C415.9 172.2 454.6 133.6 454.6 86.1C454.6 38.6 416 0 368.5 0C321 0 282.4 38.6 282.4 86.1C282.4 96.1 284.1 105.7 287.3 114.6L155.2 188.4C139.5 167.8 114.7 154.6 86.9 154.6C39.5 154.6 0.800049 193.2 0.800049 240.7C0.800049 288.2 39.5 326.8 87 326.8C114.8 326.8 139.6 313.5 155.4 292.9L287.6 366.8C284.4 375.8 282.6 385.5 282.6 395.5C282.6 442.9 321.2 481.6 368.7 481.6C416.2 481.6 454.8 443 454.8 395.5C454.8 348 416.1 309.4 368.6 309.4ZM368.6 27.1C401.2 27.1 427.7 53.6 427.7 86.2C427.7 118.8 401.2 145.3 368.6 145.3C336 145.3 309.5 118.8 309.5 86.2C309.5 53.6 336.1 27.1 368.6 27.1ZM87 299.8C54.4 299.8 27.9001 273.3 27.9001 240.7C27.9001 208.1 54.4 181.6 87 181.6C119.6 181.6 146.1 208.1 146.1 240.7C146.1 273.3 119.5 299.8 87 299.8ZM368.6 454.5C336 454.5 309.5 428 309.5 395.4C309.5 362.8 336 336.3 368.6 336.3C401.2 336.3 427.7 362.8 427.7 395.4C427.7 428 401.2 454.5 368.6 454.5Z" fill="url(#paint0_linear)"/>
<defs>
<linearGradient id="paint0_linear" x1="227.8" y1="0" x2="227.8" y2="481.6" gradientUnits="userSpaceOnUse">
<stop stop-color="#A7005A" stop-opacity="0.24"/>
<stop offset="1" stop-color="#EE488B"/>
</linearGradient>
</defs>
</svg>
