<svg width="152" height="95" viewBox="0 0 152 95" fill="none" xmlns="http://www.w3.org/2000/svg">
<path d="M151.042 81.495C151.042 70.075 142.882 60.337 131.476 56.583C133.276 54.411 134.672 51.859 135.577 49.404C137.123 48.477 138.336 46.806 138.819 44.862C139.259 43.094 140.233 39.222 138.153 37.11V35.371C138.239 32.386 138.475 24.627 132.015 21.274C131.847 20.651 131.804 20.161 131.793 20.057L130.977 11.761L125.029 17.373C124.331 17.91 120.373 18.883 116.647 19.259L115.119 19.495C103.745 21.284 103.928 27.848 104.071 33.13C104.092 33.803 104.114 34.515 104.114 35.313L104.164 36.877C103.019 38.14 102.206 40.456 103.262 44.768C103.745 46.697 104.987 48.361 106.504 49.181C107.205 50.981 108.594 53.952 110.756 56.604C105.932 58.189 101.702 60.849 98.42 64.259C95.36 62.301 91.964 60.745 88.335 59.617C91.019 56.568 93.048 52.835 94.34 49.288C96.351 48.157 97.947 46.003 98.592 43.465C99.161 41.164 100.439 36.064 97.683 33.512V30.903C97.866 24.765 97.193 16.265 89.559 12.479C89.244 11.416 89.187 10.586 89.18 10.493L88.207 0.61499L81.114 7.29699C80.269 8.06599 74.84 9.42999 69.615 9.95299L67.571 10.275C52.88 12.587 53.102 20.718 53.309 28.205C53.334 29.025 53.356 29.876 53.356 30.825L53.428 33.162C51.925 34.672 50.798 37.607 52.197 43.333C52.82 45.842 54.462 47.993 56.431 48.966C57.397 51.464 59.416 55.895 62.68 59.627C59.051 60.74 55.673 62.304 52.613 64.254C49.32 60.829 45.072 58.174 40.237 56.585C42.034 54.405 43.429 51.861 44.338 49.399C45.898 48.476 47.083 46.829 47.584 44.85C48.024 43.082 48.987 39.217 46.918 37.105V35.366C47.004 32.381 47.237 24.622 40.777 21.269C40.609 20.646 40.569 20.156 40.559 20.052L39.739 11.756L33.791 17.368C33.093 17.905 29.131 18.878 25.409 19.254L23.884 19.49C12.507 21.279 12.693 27.843 12.836 33.122C12.857 33.795 12.875 34.507 12.875 35.309L12.925 36.869C11.78 38.129 10.971 40.448 12.027 44.76C12.507 46.689 13.752 48.353 15.266 49.176C15.971 50.969 17.36 53.947 19.518 56.591C8.142 60.362 0 70.086 0 81.491V83.28H37.599C36.665 86.265 36.125 89.389 36.125 92.639V94.428H114.917V92.639C114.917 89.389 114.38 86.265 113.443 83.28H151.046V81.494H151.042V81.495ZM136.862 79.706V74.696C136.862 73.712 136.057 72.907 135.073 72.907C134.089 72.907 133.284 73.712 133.284 74.696V79.706H112.083C111.21 77.763 110.133 75.909 108.887 74.155C108.694 73.876 108.518 73.59 108.322 73.325C106.372 70.723 104.024 68.383 101.383 66.336C103.047 64.679 104.973 63.233 107.116 62.059L119.817 76.478C120.161 76.861 120.644 77.086 121.159 77.086C121.724 77.057 122.179 76.864 122.523 76.456L134.952 61.929C141.906 65.69 146.726 72.19 147.396 79.705L136.862 79.706ZM111.277 90.854H95.942V83.542C95.942 83.453 95.906 83.374 95.888 83.284C95.759 82.425 95.054 81.752 94.152 81.752C93.257 81.752 92.545 82.425 92.416 83.284C92.405 83.373 92.362 83.452 92.362 83.542V90.854H58.661V83.542C58.661 83.453 58.622 83.374 58.607 83.284C58.478 82.425 57.77 81.752 56.871 81.752C55.972 81.752 55.261 82.425 55.132 83.284C55.121 83.373 55.082 83.452 55.082 83.542V90.854H39.75C39.918 88.227 40.494 85.704 41.36 83.285C41.575 82.684 41.793 82.083 42.051 81.496H42.105C42.098 81.467 42.094 81.446 42.087 81.421C42.341 80.848 42.61 80.276 42.903 79.707C43.676 78.218 44.589 76.805 45.605 75.452C47.394 73.068 49.538 70.921 51.979 69.049C52.455 68.684 52.917 68.315 53.414 67.965C53.901 67.629 54.416 67.328 54.921 67.02C55.565 66.623 56.213 66.236 56.886 65.882L74.19 85.53C74.53 85.913 75.017 86.131 75.532 86.131C75.536 86.131 75.539 86.131 75.543 86.131C76.066 86.131 76.552 85.902 76.892 85.508L93.827 65.721C94.611 66.125 95.366 66.558 96.107 67.02C96.615 67.328 97.127 67.628 97.617 67.965C98.114 68.316 98.58 68.684 99.049 69.049C101.49 70.921 103.63 73.068 105.419 75.452C106.435 76.816 107.352 78.218 108.125 79.707C108.415 80.265 108.683 80.838 108.941 81.421C108.934 81.457 108.927 81.478 108.927 81.496H108.981C109.235 82.083 109.457 82.684 109.668 83.285C110.529 85.704 111.102 88.227 111.277 90.854ZM15.947 72.906C14.959 72.906 14.158 73.704 14.158 74.695V79.705H3.643C4.302 72.275 9.015 65.83 15.843 62.047L28.555 76.466C28.895 76.849 29.382 77.074 29.897 77.074C30.269 77.045 30.913 76.852 31.257 76.444L43.683 61.917C45.913 63.127 47.924 64.608 49.645 66.319C47.004 68.366 44.653 70.71 42.706 73.308C42.502 73.573 42.33 73.859 42.133 74.138C40.895 75.884 39.821 77.745 38.941 79.689H17.74V74.679C17.737 73.7 16.939 72.906 15.947 72.906ZM18.034 46.394L17.175 46.136C16.574 45.953 15.772 45.066 15.486 43.906C14.774 40.986 15.135 39.536 15.711 39.153L16.541 38.602L16.437 35.259C16.437 34.475 16.419 33.727 16.398 33.029C16.251 27.786 16.158 24.332 24.425 23.033L25.846 22.804C25.928 22.797 34.12 21.963 36.203 20.005L36.876 19.364L36.973 20.362C36.998 20.691 37.113 21.865 37.621 23.193L37.889 23.898L38.58 24.199C42.084 25.716 43.504 29.023 43.315 35.318V39.015L44.228 39.534C44.428 39.645 45.005 40.296 44.085 43.986C43.792 45.146 43.047 46.126 42.185 46.48L41.43 46.788L41.172 47.565C40.224 50.36 38.563 53.381 36.33 55.553C35.743 56.126 35.117 56.63 34.451 57.056C33.152 57.893 31.713 58.434 30.138 58.48C30.099 58.48 30.063 58.494 30.027 58.494C29.977 58.494 29.93 58.487 29.877 58.487C29.83 58.487 29.791 58.494 29.745 58.494C29.613 58.494 29.498 58.437 29.369 58.43C27.823 58.333 26.431 57.85 25.221 57.059C24.552 56.626 23.94 56.114 23.367 55.556C20.568 52.8 18.933 48.86 18.339 47.224L18.034 46.394ZM32.564 69.423L31 63.279L32.882 61.658C34.503 61.218 35.981 60.441 37.309 59.428C38.333 59.693 39.32 60.022 40.287 60.394L32.564 69.423ZM26.494 61.589L28.466 63.282L26.952 69.237L19.243 60.487C20.267 60.09 21.315 59.725 22.407 59.446C23.61 60.373 24.966 61.121 26.494 61.589ZM59.191 46.165L58.332 45.907C57.373 45.614 56.11 44.325 55.655 42.489C54.767 38.86 54.975 36.301 56.213 35.485L57.04 34.937L56.918 30.778C56.918 29.847 56.893 28.96 56.864 27.808C56.667 20.74 56.524 15.651 68.116 13.825L70.059 13.517C70.166 13.499 80.957 12.372 83.555 9.91299L85.359 8.21999L85.606 10.793C85.631 11.086 85.76 12.65 86.436 14.426L86.704 15.127L87.391 15.428C93.615 18.119 94.273 24.715 94.091 30.86V35.459L95.007 35.982C96.023 36.555 96.063 38.784 95.1 42.614C94.663 44.343 93.525 45.821 92.194 46.368L91.439 46.676L91.181 47.453C89.86 51.372 87.495 55.616 84.31 58.615C83.737 59.152 83.143 59.642 82.513 60.089C81.69 60.676 80.809 61.159 79.9 61.542C78.808 61.997 77.67 62.29 76.464 62.394C76.135 62.423 75.831 62.519 75.494 62.519C75.018 62.519 74.56 62.462 74.105 62.415C72.988 62.275 71.936 61.982 70.948 61.563C70.035 61.173 69.184 60.675 68.382 60.103C67.756 59.648 67.151 59.165 66.593 58.636C62.606 54.839 60.309 49.306 59.482 47.026L59.191 46.165ZM79.282 77.211L77.006 68.264L80.173 65.551L79.962 65.368C81.912 64.745 83.702 63.747 85.323 62.473C87.091 62.913 88.798 63.486 90.448 64.159L79.282 77.211ZM70.754 65.286L70.45 65.551L73.61 68.264L71.405 76.953L60.254 64.295C61.986 63.583 63.783 62.967 65.658 62.484C67.164 63.679 68.864 64.656 70.754 65.286ZM109.295 46.394L108.436 46.136C107.831 45.946 107.03 45.066 106.743 43.906C106.031 40.986 106.392 39.536 106.965 39.153L107.795 38.602L107.691 35.259C107.691 34.475 107.673 33.727 107.652 33.022C107.509 27.786 107.419 24.333 115.679 23.033L117.103 22.804C117.178 22.797 125.37 21.963 127.453 20.005L128.126 19.364L128.223 20.362C128.248 20.691 128.363 21.858 128.867 23.193L129.135 23.898L129.829 24.199C133.333 25.716 134.753 29.023 134.56 35.318V39.015L135.476 39.534C135.676 39.645 136.256 40.296 135.329 43.986C135.036 45.146 134.295 46.126 133.432 46.48L132.677 46.788L132.419 47.565C131.471 50.36 129.81 53.381 127.577 55.553C126.99 56.126 126.36 56.63 125.698 57.056C124.399 57.893 122.957 58.434 121.385 58.48L121.406 58.501C121.363 58.501 121.324 58.494 121.281 58.494C121.224 58.494 121.181 58.487 121.127 58.487C121.08 58.487 121.041 58.494 120.995 58.494C120.863 58.494 120.748 58.437 120.619 58.43C119.073 58.333 117.684 57.85 116.468 57.059C115.802 56.626 115.19 56.114 114.618 55.556C111.816 52.8 110.184 48.86 109.59 47.224L109.295 46.394ZM123.817 69.423L122.253 63.278L124.135 61.657C125.756 61.21 127.231 60.44 128.566 59.427C129.582 59.692 130.577 60.021 131.536 60.393L123.817 69.423ZM117.755 61.589L119.723 63.282L118.209 69.237L110.5 60.487C111.524 60.09 112.572 59.725 113.664 59.446C114.863 60.373 116.227 61.128 117.755 61.589Z" fill="url(#paint0_linear)"/>
<defs>
<linearGradient id="paint0_linear" x1="75.523" y1="0.61499" x2="75.523" y2="94.428" gradientUnits="userSpaceOnUse">
<stop stop-color="#EE4869"/>
<stop offset="1" stop-color="#A70A00" stop-opacity="0"/>
</linearGradient>
</defs>
</svg>
